<?xml version="1.0" encoding="utf-8"?>
<!-- Generator: Adobe Illustrator 24.0.2, SVG Export Plug-In . SVG Version: 6.00 Build 0)  -->
<svg version="1.1" id="Layer_3" xmlns="http://www.w3.org/2000/svg" xmlns:xlink="http://www.w3.org/1999/xlink" x="0px" y="0px"
	 viewBox="0 0 300 300" style="enable-background:new 0 0 300 300;" xml:space="preserve">
<style type="text/css">
	.st0{fill:#C8EEFC;}
	.st1{fill:#E2FFFF;}
	.st2{fill:#FFDEED;}
	.st3{fill:#7DBF8C;}
	.st4{fill:#9FDAAF;}
	.st5{fill:#FFC6CA;}
	.st6{fill:#003CA6;}
	.st7{fill:#0062C7;}
	.st8{fill:#B9DDFF;}
	.st9{fill:#0F3872;}
	.st10{fill:#FFFFFF;}
	.st11{clip-path:url(#SVGID_2_);}
	.st12{fill:#85C4F9;}
	.st13{fill:#4BAAFC;}
	.st14{fill:url(#SVGID_3_);}
	.st15{fill:#F1FEF4;}
	.st16{fill:url(#SVGID_4_);}
	.st17{fill:#DD4845;}
	.st18{fill:#FEB05C;}
	.st19{fill:#0B52FF;}
	.st20{fill:#25228A;}
	.st21{fill:#9C7465;}
	.st22{fill:#5F463C;}
	.st23{fill:#2075FF;}
	.st24{fill:#FF769D;}
	.st25{fill:#FF2363;}
	.st26{opacity:0.42;fill:#FFFFFF;}
	.st27{fill:#004E4A;}
	.st28{fill:#FF7A00;}
	.st29{fill:#00848A;}
	.st30{fill:#269AFF;}
	.st31{fill:#FAC5CA;}
	.st32{fill:#FF9A00;}
	.st33{fill:#0087FF;}
	.st34{fill:#46ADF9;}
	.st35{fill:url(#SVGID_5_);}
	.st36{fill:url(#SVGID_6_);}
	.st37{fill:url(#SVGID_7_);}
	.st38{fill:url(#SVGID_8_);}
	.st39{fill:url(#SVGID_9_);}
	.st40{fill:none;}
</style>
<g>
	<g>
		<g>
			<g>
				<path class="st0" d="M66.8,251.5c-5.5-2.7-25.1,11.5-28.1-20.9c-3-32.4-23.2-30.2-22.7-50c0.5-19.8,14.1-37.3,26.2-45
					c12.1-7.7-26.5-49.4,4.1-68.9S82.5,64,100,55.3c17.4-8.6,26-32.3,57.3-30.1S183,59.8,183,59.8s34.8-20.1,74.2,10.7
					c39.3,30.8,4.9,95.1,4.9,95.1l-31.3-3.6c0,0,50.4-20.3,53,23.1c2.5,43.4-20.7,74.1-52.5,75.8S66.8,251.5,66.8,251.5z"/>
				<path class="st1" d="M97.6,254.2c-12.4-3-36.5-50.9-52.6-88.9c-16.1-38.1,2.8-94,42.4-25.9s62.5,108.8,62.5,108.8
					s53.2-180.2,105.8-129s-90.3,140.5-90.3,140.5L97.6,254.2z"/>
				<path class="st0" d="M101.7,35.9c2.3,5.9-1,13.1-7.5,16.1c-6.5,3-13.6,0.6-15.9-5.3c-2.3-5.9,1-13.1,7.5-16.1
					C92.3,27.6,99.4,30,101.7,35.9z"/>
				<ellipse class="st2" cx="156.6" cy="247.3" rx="105.1" ry="20.1"/>
			</g>
		</g>
	</g>
	<path class="st3" d="M139.5,170.2l-2.1-0.4c0,0-0.7-17.3-2.4-22.6c0,0-22.9-0.6-26.3-19c0,0,17.7-5.9,26.4,16.2
		c0,0-0.8-16.7-4.5-32.8c0,0-17.3,3-19.5-13.4c0,0,10.5-5.2,18.3,5.1c0,0-2.3-12.9-5-19.5c0,0-13,2-16.7-12.1c0,0,9.6-1.2,15.5,6.4
		l-4.5-13.7c0,0-10.5-9.2-7.3-22.7c0,0,11.8,5.9,8.8,21.2l4.3,14.8c0,0,2.1-13.8,11.3-13.8c0,0,0.1,17-9.5,19.4
		c0,0,4.3,13.6,5.4,23.5c0,0-0.3-18,13.6-20.5c0,0,3.9,14.1-12.3,23.5c0,0,2.8,14.9,3.9,33.7c0,0-2.9-17.9,13.2-27.3
		c0,0,8.6,15.6-12.1,31.6C138,148,139.8,158.4,139.5,170.2z"/>
	<path class="st4" d="M167.3,109.2l-1-0.6c0,0,2.8-9.1,2.8-12.1c0,0-11.7-5.2-10.1-15.4c0,0,10.2,0.8,10.6,14c0,0,2.6-8.8,3.6-17.9
		c0,0-9.4-2.2-7.6-11.1c0,0,6.4-0.4,8.5,6.5c0,0,1.1-7.1,0.9-11.1c0,0-7.1-1.8-6.4-9.8c0,0,5.1,1.4,6.8,6.6l0.2-8
		c0,0-3.7-7,0.3-13.2c0,0,5,5.6,0.7,12.8l-0.5,8.5c0,0,3.6-6.7,8.3-4.7c0,0-3,8.8-8.4,8c0,0-0.3,7.9-1.4,13.3c0,0,3.1-9.3,10.7-7.6
		c0,0-0.6,8.1-10.5,9.4c0,0-1.2,8.3-4.1,18.2c0,0,1.7-9.8,11.7-11.2c0,0,1.6,9.9-11.9,13.7C170.5,97.4,169.5,103.2,167.3,109.2z"/>
	<path class="st5" d="M227,181.5l2.3-0.2c0,0,2.2-18.5,4.5-24c0,0,25.2,1.4,30.4-18c0,0-19-7.9-30.3,15c0,0,2.3-17.9,7.7-34.8
		c0,0,18.7,4.8,22.6-12.6c0,0-11.1-6.5-20.5,3.8c0,0,3.6-13.6,7.1-20.4c0,0,14.2,3.3,19.4-11.5c0,0-10.4-2.2-17.5,5.4l6-14.2
		c0,0,12.2-8.9,9.9-23.6c0,0-13.5,5.3-11.4,21.9l-5.9,15.5c0,0-1.2-15-11.3-15.8c0,0-1.5,18.2,8.8,21.7c0,0-5.8,14.2-7.9,24.7
		c0,0,1.8-19.3-13.2-23.1c0,0-5.4,14.8,11.5,26.2c0,0-4.4,15.7-7,35.8c0,0,4.7-18.9-12.2-30.4c0,0-10.7,15.9,10.7,34.9
		C230.5,157.8,227.7,168.8,227,181.5z"/>
	<path class="st5" d="M89.2,234.2l1.7-1.4c0,0-6.7-15.3-7.4-20.7c0,0,19.9-12.5,15.1-30.1c0,0-18,4.2-16.3,27.7
		c0,0-6.4-14.8-9.9-30.6c0,0,16.4-6.4,11.5-21.7c0,0-11.4,1-13.9,13.9c0,0-3.4-12.3-3.9-19.4c0,0,12.3-5.1,9.6-19.2
		c0,0-8.9,3.9-10.9,13.5l-1.9-14.1c0,0,5.3-13.4-3.1-23.3c0,0-7.9,11.2,1.2,22.8l2.5,15c0,0-7.7-10.8-15.7-6c0,0,7.1,14.7,16.6,11.8
		c0,0,2,14,5.2,23.1c0,0-7.4-15.7-20.6-10.5c0,0,2.6,14.2,20.7,13.8c0,0,3.8,14.3,10.8,31c0,0-5-16.9-23.1-16.6c0,0-1,17.9,24,20.9
		C81.2,214.3,84,224.2,89.2,234.2z"/>
	<path class="st0" d="M32.1,217.4c1.4,4.7-0.2,9.4-3.4,10.6c-3.3,1.1-7-1.8-8.3-6.5s0.2-9.4,3.4-10.6
		C27,209.8,30.7,212.7,32.1,217.4z"/>
	<g>
		<path class="st3" d="M40.5,177.8c-2,0.9-3.2,4.6-2.9,9.1c0.3,4.6,5.6,8.3,6.6,11.6c1,3.3-1.7,6.8-0.4,11.4
			c1.2,4.6,5.3,3.2,7.6,8.1c2.3,4.8,0,9.9,1.9,16.5c1.9,6.6,9.1,9.4,11.3,8.7c0,0,0.1,0,0.1-0.1l-4.5-11.6l-5-11.5
			c0,0-3.9-13.9-5.4-18.5c-2-6-9-23.8-9-23.8C40.7,177.8,40.6,177.8,40.5,177.8z"/>
		<path class="st3" d="M67.3,240.6c1.4-2,2.8-5.1,2.8-8.5c0-0.6,0-1.1-0.1-1.6L67.3,240.6z"/>
		<path class="st4" d="M62.2,220.5c-2.7-3.5-0.3-9-0.6-13.5c-0.4-4.6-9.5-8.5-11.1-11.2c-1.6-2.7,1.2-4.3-0.2-11
			c-1.4-6.4-7.1-7.7-9.4-7c0,0,6.9,18.2,8.9,24.3c1.5,4.5,3.8,14.9,5.7,19.7c1.6,4,9.3,21.4,9.3,21.4c0.7-0.3,3.2-3.2,4-4.8
			c1.6-3.2,1.4-7.9,1.4-7.9C69.3,225.8,64.6,223.7,62.2,220.5z"/>
	</g>
	<g>
		<path class="st6" d="M235.3,216.6H88.6v-94.7c0-2,1.6-3.6,3.6-3.6h139.5c2,0,3.6,1.6,3.6,3.6V216.6z"/>
		<rect x="96.8" y="126" class="st7" width="130.3" height="82.9"/>
		<g>
			<path class="st6" d="M250.4,251.8L250.4,251.8C250.4,251.9,250.4,251.9,250.4,251.8L250.4,251.8z"/>
			<path class="st6" d="M249.6,252.7l-174.2,0c-0.4,0-0.8-0.4-0.8-0.8h0v1.7c0,0,0,0,0,0v0h0c0,0.4,0.3,0.8,0.8,0.8l174.2,0
				c0.5,0,0.8-0.4,0.8-0.9v-1.6C250.4,252.4,250,252.7,249.6,252.7z"/>
			<path class="st8" d="M87.7,216.2l-13,35.4c0,0.1-0.1,0.2-0.1,0.3c0,0.4,0.3,0.8,0.8,0.8l174.2,0c0.4,0,0.7-0.4,0.8-0.8
				c0,0,0,0,0,0c0,0,0,0,0-0.1c0-0.1,0-0.2-0.1-0.3l-14.6-35.3H87.7z M233.8,232.1l-6.3,0l-7,0l-6.6,0c-0.2,0-0.4-0.2-0.5-0.4
				l-1.2-4.7c0-0.1,0-0.2,0-0.3l0-0.1c-0.1-0.3,0.1-0.6,0.5-0.6l6.2,0l6.8,0l6.5,0c0.2,0,0.4,0.1,0.4,0.3l1.6,4.7c0,0.1,0,0.3,0,0.4
				l0,0C234.3,231.8,234.1,232.1,233.8,232.1z M202,239.1c0,0.1,0,0.2,0,0.3l0,0.1c0.1,0.3-0.2,0.6-0.5,0.6l-11.6,0
				c-0.2,0-0.4-0.2-0.5-0.4l-0.7-4.7c0-0.1,0-0.2,0-0.2l0-0.2c0-0.3,0.2-0.6,0.5-0.6l11.3,0c0.2,0,0.4,0.2,0.5,0.4L202,239.1z
				 M184.5,239.2c0,0.1,0,0.2,0,0.2l0,0.2c0,0.3-0.2,0.6-0.5,0.6l-11.6,0c-0.2,0-0.4-0.2-0.5-0.5l-0.3-4.7c0-0.1,0-0.1,0-0.2l0-0.2
				c0-0.3,0.2-0.5,0.5-0.5l11.3,0c0.2,0,0.4,0.2,0.5,0.4L184.5,239.2z M167,239.2c0,0,0,0.1,0,0.1l0,0.3c0,0.3-0.2,0.5-0.5,0.5
				l-11.6,0c-0.3,0-0.5-0.2-0.5-0.5l0-0.4c0,0,0,0,0,0l0-4.7c0-0.3,0.2-0.5,0.5-0.5l11.3,0c0.2,0,0.5,0.2,0.5,0.5L167,239.2z
				 M84.5,239.2l1.4-4.7c0.1-0.2,0.2-0.4,0.4-0.4l16.8,0l1.8,0l9.9,0c0.3,0,0.5,0.3,0.5,0.6l0,0.1c0,0.1,0,0.2,0,0.3l-0.8,4.7
				c0,0.2-0.2,0.4-0.5,0.4l-10.3,0l-1.9,0l-16.9,0c-0.3,0-0.5-0.3-0.4-0.7l0,0C84.5,239.4,84.5,239.3,84.5,239.2z M86.9,231.2
				l1.4-4.7c0.1-0.2,0.2-0.4,0.4-0.4l6.5,0l6.8,0l6.3,0c0.3,0,0.5,0.3,0.5,0.6l0,0.1c0,0.1,0,0.2,0,0.3l-1,4.7
				c0,0.2-0.2,0.4-0.5,0.4l-6.6,0l-7,0l-6.4,0c-0.3,0-0.5-0.3-0.4-0.7l0,0C86.9,231.5,86.9,231.4,86.9,231.2z M107.1,218.2l10.5,0
				c0.3,0,0.5,0.3,0.5,0.6l0,0.1c0,0.1,0,0.2,0,0.3l-0.8,4.7c0,0.2-0.2,0.4-0.5,0.4l-10.7,0c-0.3,0-0.5-0.3-0.5-0.6l0-0.1
				c0-0.1,0-0.2,0-0.3l1.1-4.7C106.7,218.4,106.9,218.2,107.1,218.2z M197.9,218.5l0.9,4.7c0,0.1,0,0.2,0,0.3l0,0.1
				c0.1,0.3-0.2,0.6-0.5,0.6l-10.7,0c-0.2,0-0.4-0.2-0.5-0.4l-0.7-4.7c0-0.1,0-0.2,0-0.2l0-0.2c0-0.3,0.2-0.6,0.5-0.6l10.5,0
				C197.7,218.1,197.9,218.3,197.9,218.5z M192,231.2c0,0.1,0,0.2,0,0.3l0,0.1c0.1,0.3-0.2,0.6-0.5,0.6l-11.1,0
				c-0.2,0-0.4-0.2-0.5-0.4l-0.5-4.7c0-0.1,0-0.2,0-0.2l0-0.2c0-0.3,0.2-0.6,0.5-0.6l10.9,0c0.2,0,0.4,0.2,0.5,0.4L192,231.2z
				 M146.1,231.7l0-0.3c0,0,0-0.1,0-0.1l0.2-4.7c0-0.3,0.2-0.5,0.5-0.5l10.9,0c0.3,0,0.5,0.2,0.5,0.5l0.1,4.7c0,0,0,0,0,0l0,0.4
				c0,0.3-0.2,0.5-0.5,0.5l-11.1,0C146.3,232.2,146.1,232,146.1,231.7z M163,231.7l-0.2-4.7c0,0,0,0,0-0.1l0-0.3
				c0-0.3,0.2-0.5,0.5-0.5l10.9,0c0.2,0,0.4,0.2,0.5,0.5l0.4,4.7c0,0.1,0,0.1,0,0.2l0,0.2c0,0.3-0.2,0.6-0.5,0.6l-11.1,0
				C163.2,232.2,163,232,163,231.7z M181.9,218.6l0.6,4.7c0,0.1,0,0.2,0,0.2l0,0.2c0,0.3-0.2,0.6-0.5,0.6l-10.7,0
				c-0.2,0-0.4-0.2-0.5-0.5l-0.3-4.7c0-0.1,0-0.1,0-0.2l0-0.2c0-0.3,0.2-0.5,0.5-0.5l10.5,0C181.7,218.1,181.9,218.3,181.9,218.6z
				 M166,218.6l0.2,4.7c0,0,0,0.1,0,0.1l0,0.3c0,0.3-0.2,0.5-0.5,0.5l-10.7,0c-0.3,0-0.5-0.2-0.5-0.5l0-0.4c0,0,0,0,0,0l0-4.7
				c0-0.3,0.2-0.5,0.5-0.5l10.5,0C165.7,218.2,165.9,218.4,166,218.6z M129.2,231.3l0.5-4.7c0-0.3,0.2-0.4,0.5-0.4l10.9,0
				c0.3,0,0.5,0.2,0.5,0.5l0,0.2c0,0,0,0.1,0,0.2l-0.3,4.7c0,0.3-0.2,0.5-0.5,0.5l-11.1,0c-0.3,0-0.5-0.3-0.5-0.6l0-0.2
				C129.2,231.4,129.1,231.4,129.2,231.3z M124.9,227.2l-0.6,4.7c0,0.2-0.2,0.4-0.5,0.4l-11.1,0c-0.3,0-0.5-0.3-0.5-0.6l0-0.1
				c0-0.1,0-0.2,0-0.3l0.9-4.7c0-0.2,0.2-0.4,0.5-0.4l10.9,0c0.3,0,0.5,0.3,0.5,0.6l0,0.2C124.9,227,124.9,227.1,124.9,227.2z
				 M120,240.2c-0.3,0-0.5-0.3-0.5-0.6l0-0.1c0-0.1,0-0.2,0-0.3l0.7-4.7c0-0.2,0.2-0.4,0.5-0.4l11.3,0c0.3,0,0.5,0.3,0.5,0.6l0,0.2
				c0,0.1,0,0.1,0,0.2l-0.5,4.7c0,0.3-0.2,0.5-0.5,0.5L120,240.2z M137,239.6l0-0.2c0-0.1,0-0.1,0-0.2l0.4-4.7
				c0-0.3,0.2-0.5,0.5-0.5l11.3,0c0.3,0,0.5,0.2,0.5,0.5l0,0.4c0,0,0,0,0,0.1l-0.1,4.7c0,0.3-0.2,0.5-0.5,0.5l-11.6,0
				C137.2,240.2,137,239.9,137,239.6z M197.3,232.2c-0.2,0-0.4-0.2-0.5-0.4l-0.9-4.7c0-0.1,0-0.2,0-0.3l0-0.1
				c-0.1-0.3,0.2-0.6,0.5-0.6l10.9,0c0.2,0,0.4,0.2,0.5,0.4l1.1,4.7c0,0.1,0,0.2,0,0.3l0,0.1c0.1,0.3-0.1,0.6-0.5,0.6L197.3,232.2z
				 M229.8,218.4l1.6,4.7c0,0.1,0,0.3,0,0.4l0,0c0.1,0.3-0.1,0.7-0.4,0.7l-10.7,0c-0.2,0-0.4-0.1-0.4-0.4l-1.4-4.7
				c0-0.1,0-0.2,0-0.4l0,0c-0.1-0.3,0.1-0.7,0.4-0.7l10.4,0C229.6,218,229.7,218.2,229.8,218.4z M203,218.1l10.4,0
				c0.2,0,0.4,0.1,0.4,0.4l1.3,4.7c0,0.1,0,0.2,0,0.3l0,0.1c0.1,0.3-0.1,0.7-0.4,0.7l-10.7,0c-0.2,0-0.4-0.2-0.5-0.4l-1-4.7
				c0-0.1,0-0.2,0-0.3l0-0.1C202.4,218.4,202.7,218.1,203,218.1z M150,218.7l0,0.4c0,0,0,0,0,0.1l-0.1,4.7c0,0.3-0.2,0.5-0.5,0.5
				l-10.7,0c-0.3,0-0.5-0.3-0.5-0.6l0-0.2c0-0.1,0-0.1,0-0.2l0.4-4.7c0-0.3,0.2-0.5,0.5-0.5l10.5,0C149.8,218.2,150,218.4,150,218.7
				z M134,218.8l0,0.2c0,0.1,0,0.1,0,0.2l-0.5,4.7c0,0.3-0.2,0.5-0.5,0.5l-10.7,0c-0.3,0-0.5-0.3-0.5-0.6l0-0.1c0-0.1,0-0.2,0-0.3
				l0.7-4.7c0-0.2,0.2-0.4,0.5-0.4l10.5,0C133.8,218.2,134,218.5,134,218.8z M89.3,223.3l1.4-4.7c0.1-0.2,0.2-0.4,0.4-0.4l10.4,0
				c0.3,0,0.5,0.3,0.5,0.6l0,0.1c0,0.1,0,0.2,0,0.3l-1.2,4.7c-0.1,0.2-0.2,0.4-0.5,0.4l-10.7,0c-0.3,0-0.5-0.3-0.4-0.7l0,0
				C89.3,223.5,89.3,223.4,89.3,223.3z M96.1,243.2l-1.2,4.7c-0.1,0.2-0.2,0.4-0.5,0.4l-12,0c-0.3,0-0.5-0.3-0.4-0.7l0,0
				c0-0.1-0.1-0.2,0-0.4l1.4-4.7c0.1-0.2,0.2-0.4,0.4-0.4l11.7,0c0.3,0,0.5,0.3,0.5,0.6l0,0.1C96.1,242.9,96.1,243,96.1,243.2z
				 M113.9,243.1l-0.8,4.7c0,0.2-0.2,0.4-0.5,0.4l-12,0c-0.3,0-0.5-0.3-0.5-0.6l0-0.1c0-0.1,0-0.2,0-0.3l1.1-4.7
				c0.1-0.2,0.2-0.4,0.5-0.4l11.7,0c0.3,0,0.5,0.3,0.5,0.6l0,0.1C113.9,242.9,113.9,243,113.9,243.1z M203.6,247.5
				c0.1,0.3-0.2,0.6-0.5,0.6l-12.4,0l-5.2,0l-13,0l-5.2,0l-13,0l-5.2,0l-13,0l-17.6,0c-0.3,0-0.5-0.3-0.5-0.6l0-0.1
				c0-0.1,0-0.2,0-0.3l0.7-4.7c0-0.2,0.2-0.4,0.5-0.4l17.3,0l12.7,0l5.1,0l12.7,0l5.1,0l12.7,0l5.1,0l12.3,0c0.2,0,0.4,0.2,0.5,0.4
				l0.9,4.7c0,0.1,0,0.2,0,0.3L203.6,247.5z M207.1,239.7l-1-4.7c0-0.1,0-0.2,0-0.3l0-0.1c-0.1-0.3,0.2-0.6,0.5-0.6l9.8,0l1.9,0
				l16.8,0c0.2,0,0.4,0.1,0.4,0.3l1.6,4.7c0,0.1,0,0.3,0,0.4l0,0c0.1,0.3-0.1,0.7-0.4,0.7l-16.9,0l-1.9,0l-10.3,0
				C207.3,240.1,207.1,240,207.1,239.7z M221.7,247.4c0.1,0.3-0.1,0.7-0.4,0.7l-12,0c-0.2,0-0.4-0.2-0.5-0.4l-1-4.7
				c0-0.1,0-0.2,0-0.3l0-0.1c-0.1-0.3,0.2-0.6,0.5-0.6l11.7,0c0.2,0,0.4,0.1,0.4,0.4l1.3,4.7C221.7,247.2,221.7,247.3,221.7,247.4
				L221.7,247.4z M239.8,247.4c0.1,0.3-0.1,0.7-0.4,0.7l-11.9,0c-0.2,0-0.4-0.1-0.4-0.4l-1.4-4.7c0-0.1,0-0.2,0-0.4l0,0
				c-0.1-0.3,0.1-0.7,0.4-0.7l11.7,0c0.2,0,0.4,0.1,0.4,0.3l1.6,4.7C239.8,247.1,239.8,247.3,239.8,247.4L239.8,247.4z"/>
			<path class="st9" d="M94.5,247.8l-12,0c-0.2,0-0.4-0.1-0.4-0.3l0,0c-0.1,0.3,0.1,0.7,0.4,0.7l12,0c0.2,0,0.4-0.2,0.5-0.4l1.2-4.7
				c0-0.1,0-0.2,0-0.3l-1.1,4.6C94.9,247.6,94.7,247.8,94.5,247.8z"/>
			<path class="st9" d="M112.6,247.8l-12,0c-0.2,0-0.4-0.1-0.4-0.3l0,0.1c-0.1,0.3,0.2,0.6,0.5,0.6l12,0c0.2,0,0.4-0.2,0.5-0.4
				l0.8-4.7c0-0.1,0-0.2,0-0.3l-0.8,4.5C113,247.6,112.8,247.8,112.6,247.8z"/>
			<path class="st9" d="M203.1,247.7l-12.4,0l-5.2,0l-13,0l-5.2,0l-13,0l-5.2,0l-13,0l-17.6,0c-0.2,0-0.4-0.1-0.4-0.3l0,0.1
				c0,0.3,0.2,0.6,0.5,0.6l17.6,0l13,0l5.2,0l13,0l5.2,0l13,0l5.2,0l12.4,0c0.3,0,0.5-0.3,0.5-0.6l0-0.1
				C203.5,247.6,203.4,247.7,203.1,247.7z"/>
			<path class="st9" d="M221.2,247.7l-12,0c-0.2,0-0.4-0.2-0.5-0.4l-1-4.6c0,0.1,0,0.2,0,0.3l1,4.7c0.1,0.2,0.2,0.4,0.5,0.4l12,0
				c0.3,0,0.5-0.3,0.4-0.7l0-0.1C221.6,247.6,221.4,247.7,221.2,247.7z"/>
			<path class="st9" d="M239.3,247.7l-11.9,0c-0.2,0-0.4-0.1-0.4-0.4l-1.4-4.6c0,0.1-0.1,0.2,0,0.4l1.4,4.7c0.1,0.2,0.2,0.4,0.4,0.4
				l11.9,0c0.3,0,0.6-0.4,0.4-0.7l0,0C239.7,247.5,239.5,247.7,239.3,247.7z"/>
			<path class="st9" d="M84.9,240.3l16.9,0l1.9,0l10.3,0c0.2,0,0.4-0.2,0.5-0.4l0.8-4.7c0-0.1,0-0.2,0-0.3l-0.8,4.5
				c0,0.2-0.2,0.4-0.5,0.4l-10.3,0l-1.9,0l-16.9,0c-0.2,0-0.4-0.1-0.4-0.3l0,0C84.4,239.9,84.6,240.3,84.9,240.3z"/>
			<path class="st9" d="M132,239.8l0.5-4.7c0-0.1,0-0.1,0-0.2l-0.4,4.5c0,0.3-0.2,0.5-0.5,0.5l-11.6,0c-0.2,0-0.4-0.1-0.4-0.3l0,0.1
				c0,0.3,0.2,0.6,0.5,0.6l11.6,0C131.8,240.2,132,240,132,239.8z"/>
			<path class="st9" d="M137.5,240.2l11.6,0c0.3,0,0.5-0.2,0.5-0.5l0.1-4.7c0,0,0,0,0-0.1l-0.1,4.3c0,0.3-0.2,0.5-0.5,0.5l-11.6,0
				c-0.2,0-0.4-0.2-0.4-0.4l0,0.2C137,239.9,137.2,240.2,137.5,240.2z"/>
			<path class="st9" d="M166.5,239.8l-11.6,0c-0.3,0-0.5-0.2-0.5-0.5l0,0.4c0,0.3,0.2,0.5,0.5,0.5l11.6,0c0.3,0,0.5-0.2,0.5-0.5
				l0-0.3C166.9,239.6,166.8,239.8,166.5,239.8z"/>
			<path class="st9" d="M184.1,239.8l-11.6,0c-0.2,0-0.4-0.2-0.5-0.5l-0.3-4.4c0,0.1,0,0.1,0,0.2l0.3,4.7c0,0.3,0.2,0.5,0.5,0.5
				l11.6,0c0.3,0,0.5-0.3,0.5-0.6l0-0.2C184.4,239.6,184.3,239.8,184.1,239.8z"/>
			<path class="st9" d="M201.6,239.7l-11.6,0c-0.2,0-0.4-0.2-0.5-0.4l-0.7-4.5c0,0.1,0,0.2,0,0.2l0.7,4.7c0,0.2,0.2,0.4,0.5,0.4
				l11.6,0c0.3,0,0.5-0.3,0.5-0.6l0-0.1C201.9,239.6,201.8,239.7,201.6,239.7z"/>
			<path class="st9" d="M219.7,240.1l16.9,0c0.3,0,0.6-0.4,0.4-0.7l0,0c-0.1,0.2-0.2,0.3-0.4,0.3l-16.9,0l-1.9,0l-10.3,0
				c-0.2,0-0.4-0.2-0.5-0.4l-1-4.6c0,0.1,0,0.2,0,0.3l1,4.7c0.1,0.2,0.2,0.4,0.5,0.4l10.3,0L219.7,240.1z"/>
			<path class="st9" d="M87.3,232.3l6.4,0l7,0l6.6,0c0.2,0,0.4-0.2,0.5-0.4l1-4.7c0-0.1,0-0.2,0-0.3l-0.9,4.6c0,0.2-0.2,0.4-0.5,0.4
				l-6.6,0l-7,0l-6.4,0c-0.2,0-0.4-0.1-0.4-0.3l0,0C86.8,232,87,232.3,87.3,232.3z"/>
			<path class="st9" d="M123.8,231.9l-11.1,0c-0.2,0-0.4-0.1-0.4-0.3l0,0.1c-0.1,0.3,0.2,0.6,0.5,0.6l11.1,0c0.2,0,0.4-0.2,0.5-0.4
				l0.6-4.7c0-0.1,0-0.2,0-0.2l-0.6,4.5C124.3,231.7,124.1,231.9,123.8,231.9z"/>
			<path class="st9" d="M129.6,232.3l11.1,0c0.2,0,0.5-0.2,0.5-0.5l0.3-4.7c0-0.1,0-0.1,0-0.2l-0.3,4.4c0,0.3-0.2,0.5-0.5,0.5
				l-11.1,0c-0.2,0-0.4-0.1-0.4-0.3l0,0.2C129.1,232,129.3,232.3,129.6,232.3z"/>
			<path class="st9" d="M146.5,232.2l11.1,0c0.3,0,0.5-0.2,0.5-0.5l0-0.4c0,0.3-0.2,0.5-0.5,0.5l-11.1,0c-0.2,0-0.4-0.2-0.5-0.4
				l0,0.3C146.1,232,146.3,232.2,146.5,232.2z"/>
			<path class="st9" d="M163.5,232.2l11.1,0c0.3,0,0.5-0.3,0.5-0.6l0-0.2c-0.1,0.2-0.2,0.4-0.4,0.4l-11.1,0c-0.3,0-0.5-0.2-0.5-0.5
				l-0.2-4.3c0,0,0,0,0,0.1l0.2,4.7C163,232,163.2,232.2,163.5,232.2z"/>
			<path class="st9" d="M191.5,231.8l-11.1,0c-0.2,0-0.4-0.2-0.5-0.4l-0.5-4.5c0,0.1,0,0.1,0,0.2l0.5,4.7c0,0.3,0.2,0.4,0.5,0.4
				l11.1,0c0.3,0,0.5-0.3,0.5-0.6l0-0.1C191.9,231.6,191.7,231.8,191.5,231.8z"/>
			<path class="st9" d="M208.9,231.5L208.9,231.5c-0.1,0.1-0.3,0.2-0.5,0.2l-11.1,0c-0.2,0-0.4-0.2-0.5-0.4l-0.8-4.5
				c0,0.1,0,0.2,0,0.3l0.9,4.7c0,0.2,0.2,0.4,0.5,0.4l11.1,0C208.7,232.2,209,231.8,208.9,231.5z"/>
			<path class="st9" d="M234.2,231.4L234.2,231.4c-0.1,0.2-0.2,0.3-0.4,0.3l-6.3,0l-7,0l-6.6,0c-0.2,0-0.4-0.2-0.5-0.4l-1.2-4.6
				c0,0.1,0,0.2,0,0.3l1.2,4.7c0.1,0.2,0.2,0.4,0.5,0.4l6.6,0l7,0l6.3,0C234.1,232.1,234.3,231.8,234.2,231.4z"/>
			<path class="st9" d="M89.7,224.4l10.7,0c0.2,0,0.4-0.2,0.5-0.4l1.2-4.7c0-0.1,0-0.2,0-0.3l-1.1,4.6c-0.1,0.2-0.2,0.4-0.5,0.4
				l-10.7,0c-0.2,0-0.4-0.1-0.4-0.3l0,0C89.2,224,89.4,224.4,89.7,224.4z"/>
			<path class="st9" d="M117.2,223.5c0,0.2-0.2,0.4-0.5,0.4l-10.7,0c-0.2,0-0.4-0.1-0.4-0.3l0,0.1c-0.1,0.3,0.2,0.6,0.5,0.6l10.7,0
				c0.2,0,0.4-0.2,0.5-0.4l0.8-4.7c0-0.1,0-0.2,0-0.3L117.2,223.5z"/>
			<path class="st9" d="M133.5,223.4c0,0.3-0.2,0.5-0.5,0.5l-10.7,0c-0.2,0-0.4-0.1-0.4-0.3l0,0.1c0,0.3,0.2,0.6,0.5,0.6l10.7,0
				c0.2,0,0.4-0.2,0.5-0.5l0.5-4.7c0-0.1,0-0.1,0-0.2L133.5,223.4z"/>
			<path class="st9" d="M149.9,223.4c0,0.3-0.2,0.5-0.5,0.5l-10.7,0c-0.2,0-0.4-0.2-0.4-0.4l0,0.2c0,0.3,0.2,0.6,0.5,0.6l10.7,0
				c0.3,0,0.5-0.2,0.5-0.5l0.1-4.7c0,0,0,0,0-0.1L149.9,223.4z"/>
			<path class="st9" d="M165.7,223.8l-10.7,0c-0.3,0-0.5-0.2-0.5-0.5l0,0.4c0,0.3,0.2,0.5,0.5,0.5l10.7,0c0.3,0,0.5-0.2,0.5-0.5
				l0-0.3C166.1,223.7,166,223.8,165.7,223.8z"/>
			<path class="st9" d="M182.1,223.8l-10.7,0c-0.2,0-0.4-0.2-0.5-0.5l-0.3-4.4c0,0.1,0,0.1,0,0.2l0.3,4.7c0,0.3,0.2,0.5,0.5,0.5
				l10.7,0c0.3,0,0.5-0.3,0.5-0.6l0-0.2C182.4,223.7,182.3,223.8,182.1,223.8z"/>
			<path class="st9" d="M198.4,223.8l-10.7,0c-0.2,0-0.4-0.2-0.5-0.4l-0.7-4.5c0,0.1,0,0.2,0,0.2l0.7,4.7c0,0.2,0.2,0.4,0.5,0.4
				l10.7,0c0.3,0,0.5-0.3,0.5-0.6l0-0.1C198.7,223.7,198.6,223.8,198.4,223.8z"/>
			<path class="st9" d="M214.7,223.8l-10.7,0c-0.2,0-0.4-0.2-0.5-0.4l-1-4.6c0,0.1,0,0.2,0,0.3l1,4.7c0.1,0.2,0.2,0.4,0.5,0.4
				l10.7,0c0.3,0,0.5-0.3,0.4-0.7l0-0.1C215.1,223.6,214.9,223.8,214.7,223.8z"/>
			<path class="st9" d="M231,223.7l-10.7,0c-0.2,0-0.4-0.1-0.4-0.4l-1.4-4.6c0,0.1-0.1,0.2,0,0.4l1.4,4.7c0.1,0.2,0.2,0.4,0.4,0.4
				l10.7,0c0.3,0,0.6-0.4,0.4-0.7l0,0C231.4,223.6,231.2,223.7,231,223.7z"/>
			<path class="st10" d="M95.7,242.1l-11.7,0c-0.2,0-0.4,0.1-0.4,0.4l-1.4,4.7c0,0.1,0,0.2,0,0.4c0.1,0.2,0.2,0.3,0.4,0.3l12,0
				c0.2,0,0.4-0.2,0.5-0.4l1.1-4.6l0-0.1C96.2,242.4,96,242.1,95.7,242.1z"/>
			<path class="st10" d="M113.4,242.1l-11.7,0c-0.2,0-0.4,0.2-0.5,0.4l-1.1,4.7c0,0.1,0,0.2,0,0.3c0.1,0.2,0.2,0.3,0.4,0.3l12,0
				c0.2,0,0.4-0.2,0.5-0.4l0.8-4.5l0-0.1C113.9,242.4,113.7,242.1,113.4,242.1z"/>
			<path class="st10" d="M203.6,247.1l-0.9-4.7c0-0.2-0.2-0.4-0.5-0.4l-12.3,0l-5.1,0l-12.7,0l-5.1,0l-12.7,0l-5.1,0l-12.7,0
				l-17.3,0c-0.2,0-0.4,0.2-0.5,0.4l-0.7,4.7c0,0.1,0,0.2,0,0.3c0.1,0.2,0.2,0.3,0.4,0.3l17.6,0l13,0l5.2,0l13,0l5.2,0l13,0l5.2,0
				l12.4,0c0.2,0,0.4-0.1,0.4-0.3C203.6,247.3,203.6,247.2,203.6,247.1z"/>
			<path class="st10" d="M221.7,247l-1.3-4.7c-0.1-0.2-0.2-0.4-0.4-0.4l-11.7,0c-0.3,0-0.5,0.3-0.5,0.6l0,0.1l1,4.6
				c0.1,0.2,0.2,0.4,0.5,0.4l12,0c0.2,0,0.4-0.1,0.4-0.3C221.7,247.3,221.7,247.2,221.7,247z"/>
			<path class="st10" d="M239.8,247l-1.6-4.7c-0.1-0.2-0.2-0.3-0.4-0.3l-11.7,0c-0.3,0-0.5,0.3-0.4,0.7l0,0l1.4,4.6
				c0.1,0.2,0.2,0.4,0.4,0.4l11.9,0c0.2,0,0.4-0.1,0.4-0.3C239.8,247.3,239.8,247.1,239.8,247z"/>
			<path class="st10" d="M84.9,239.9l16.9,0l1.9,0l10.3,0c0.2,0,0.4-0.2,0.5-0.4l0.8-4.5l0-0.1c0.1-0.3-0.2-0.6-0.5-0.6l-9.9,0
				l-1.8,0l-16.8,0c-0.2,0-0.4,0.1-0.4,0.4l-1.4,4.7c0,0.1,0,0.2,0,0.4C84.6,239.7,84.7,239.9,84.9,239.9z"/>
			<path class="st10" d="M120,239.8l11.6,0c0.2,0,0.4-0.2,0.5-0.5l0.4-4.5l0-0.2c0-0.3-0.2-0.6-0.5-0.6l-11.3,0
				c-0.2,0-0.4,0.2-0.5,0.4l-0.7,4.7c0,0.1,0,0.2,0,0.3C119.6,239.7,119.7,239.8,120,239.8z"/>
			<path class="st10" d="M137.5,239.8l11.6,0c0.3,0,0.5-0.2,0.5-0.5l0.1-4.3l0-0.4c0-0.3-0.2-0.5-0.5-0.5l-11.3,0
				c-0.2,0-0.4,0.2-0.5,0.5l-0.4,4.7c0,0.1,0,0.1,0,0.2C137.1,239.6,137.2,239.8,137.5,239.8z"/>
			<path class="st10" d="M166.3,234.1l-11.3,0c-0.3,0-0.5,0.2-0.5,0.5l0,4.7c0,0,0,0,0,0c0,0.3,0.2,0.5,0.5,0.5l11.6,0
				c0.2,0,0.4-0.2,0.5-0.4c0,0,0-0.1,0-0.1l-0.2-4.7C166.8,234.3,166.6,234.1,166.3,234.1z"/>
			<path class="st10" d="M183.5,234.1l-11.3,0c-0.3,0-0.5,0.3-0.5,0.5l0,0.2l0.3,4.4c0,0.3,0.2,0.5,0.5,0.5l11.6,0
				c0.2,0,0.4-0.1,0.4-0.3c0-0.1,0-0.2,0-0.2l-0.6-4.7C183.9,234.2,183.7,234.1,183.5,234.1z"/>
			<path class="st10" d="M200.6,234l-11.3,0c-0.3,0-0.5,0.3-0.5,0.6l0,0.2l0.7,4.5c0,0.2,0.2,0.4,0.5,0.4l11.6,0
				c0.2,0,0.4-0.1,0.4-0.3c0-0.1,0-0.2,0-0.3l-0.9-4.7C201,234.2,200.8,234,200.6,234z"/>
			<path class="st10" d="M207.1,239.3c0.1,0.2,0.2,0.4,0.5,0.4l10.3,0l1.9,0l16.9,0c0.2,0,0.4-0.1,0.4-0.3c0-0.1,0.1-0.2,0-0.4
				l-1.6-4.7c-0.1-0.2-0.2-0.3-0.4-0.3l-16.8,0l-1.9,0l-9.8,0c-0.3,0-0.5,0.3-0.5,0.6l0,0.1L207.1,239.3z"/>
			<path class="st10" d="M87.3,231.9l6.4,0l7,0l6.6,0c0.2,0,0.4-0.2,0.5-0.4l0.9-4.6l0-0.1c0.1-0.3-0.2-0.6-0.5-0.6l-6.3,0l-6.8,0
				l-6.5,0c-0.2,0-0.4,0.1-0.4,0.4l-1.4,4.7c0,0.1,0,0.2,0,0.4C87,231.8,87.1,231.9,87.3,231.9z"/>
			<path class="st10" d="M124.5,226.2l-10.9,0c-0.2,0-0.4,0.2-0.5,0.4l-0.9,4.7c0,0.1,0,0.2,0,0.3c0.1,0.2,0.2,0.3,0.4,0.3l11.1,0
				c0.2,0,0.4-0.2,0.5-0.4l0.6-4.5l0-0.2C125,226.5,124.8,226.2,124.5,226.2z"/>
			<path class="st10" d="M129.6,231.9l11.1,0c0.2,0,0.5-0.2,0.5-0.5l0.3-4.4l0-0.2c0-0.3-0.2-0.5-0.5-0.5l-10.9,0
				c-0.2,0-0.4,0.2-0.5,0.4l-0.5,4.7c0,0.1,0,0.2,0,0.2C129.2,231.7,129.4,231.9,129.6,231.9z"/>
			<path class="st10" d="M146.5,231.8l11.1,0c0.3,0,0.5-0.2,0.5-0.5c0,0,0,0,0,0l-0.1-4.7c0-0.3-0.2-0.5-0.5-0.5l-10.9,0
				c-0.3,0-0.5,0.2-0.5,0.5l-0.2,4.7c0,0,0,0.1,0,0.1C146.1,231.7,146.3,231.8,146.5,231.8z"/>
			<path class="st10" d="M163,231.3c0,0.3,0.2,0.5,0.5,0.5l11.1,0c0.2,0,0.4-0.2,0.4-0.4c0-0.1,0-0.1,0-0.2l-0.4-4.7
				c0-0.3-0.2-0.5-0.5-0.5l-10.9,0c-0.3,0-0.5,0.2-0.5,0.5l0,0.3L163,231.3z"/>
			<path class="st10" d="M190.8,226.1l-10.9,0c-0.3,0-0.5,0.3-0.5,0.6l0,0.2l0.5,4.5c0,0.3,0.2,0.4,0.5,0.4l11.1,0
				c0.2,0,0.4-0.1,0.4-0.3c0-0.1,0-0.2,0-0.3l-0.8-4.7C191.2,226.3,191,226.1,190.8,226.1z"/>
			<path class="st10" d="M196.8,231.4c0,0.2,0.2,0.4,0.5,0.4l11.1,0c0.2,0,0.4-0.1,0.4-0.3c0-0.1,0-0.2,0-0.3l-1.1-4.7
				c-0.1-0.2-0.2-0.4-0.5-0.4l-10.9,0c-0.3,0-0.5,0.3-0.5,0.6l0,0.1L196.8,231.4z"/>
			<path class="st10" d="M213.9,231.7l6.6,0l7,0l6.3,0c0.2,0,0.4-0.1,0.4-0.3c0-0.1,0.1-0.2,0-0.4l-1.6-4.7
				c-0.1-0.2-0.2-0.3-0.4-0.3l-6.5,0l-6.8,0l-6.2,0c-0.3,0-0.5,0.3-0.5,0.6l0,0.1l1.2,4.6C213.5,231.6,213.7,231.7,213.9,231.7z"/>
			<path class="st10" d="M89.7,224l10.7,0c0.2,0,0.4-0.2,0.5-0.4l1.1-4.6l0-0.1c0.1-0.3-0.1-0.6-0.5-0.6l-10.4,0
				c-0.2,0-0.4,0.1-0.4,0.4l-1.4,4.7c0,0.1,0,0.2,0,0.4C89.4,223.8,89.5,224,89.7,224z"/>
			<path class="st10" d="M105.6,223.3c0,0.1,0,0.2,0,0.3c0.1,0.2,0.2,0.3,0.4,0.3l10.7,0c0.2,0,0.4-0.2,0.5-0.4l0.8-4.5l0-0.1
				c0.1-0.3-0.2-0.6-0.5-0.6l-10.5,0c-0.2,0-0.4,0.2-0.5,0.4L105.6,223.3z"/>
			<path class="st10" d="M122.6,218.6l-0.7,4.7c0,0.1,0,0.2,0,0.3c0.1,0.2,0.2,0.3,0.4,0.3l10.7,0c0.2,0,0.4-0.2,0.5-0.5l0.4-4.5
				l0-0.2c0-0.3-0.2-0.6-0.5-0.6l-10.5,0C122.8,218.2,122.6,218.4,122.6,218.6z"/>
			<path class="st10" d="M138.6,218.7l-0.4,4.7c0,0.1,0,0.1,0,0.2c0.1,0.2,0.2,0.4,0.4,0.4l10.7,0c0.3,0,0.5-0.2,0.5-0.5l0.1-4.3
				l0-0.4c0-0.3-0.2-0.5-0.5-0.5l-10.5,0C138.8,218.2,138.6,218.4,138.6,218.7z"/>
			<path class="st10" d="M154.6,218.7l0,4.7c0,0,0,0,0,0c0,0.3,0.2,0.5,0.5,0.5l10.7,0c0.2,0,0.4-0.2,0.5-0.4c0,0,0-0.1,0-0.1
				l-0.2-4.7c0-0.3-0.2-0.5-0.5-0.5l-10.5,0C154.8,218.2,154.6,218.4,154.6,218.7z"/>
			<path class="st10" d="M170.5,218.7l0,0.2l0.3,4.4c0,0.3,0.2,0.5,0.5,0.5l10.7,0c0.2,0,0.4-0.1,0.4-0.3c0-0.1,0-0.2,0-0.2
				l-0.6-4.7c0-0.3-0.2-0.4-0.5-0.4l-10.5,0C170.7,218.1,170.5,218.4,170.5,218.7z"/>
			<path class="st10" d="M186.5,218.7l0,0.2l0.7,4.5c0,0.2,0.2,0.4,0.5,0.4l10.7,0c0.2,0,0.4-0.1,0.4-0.3c0-0.1,0-0.2,0-0.3
				l-0.9-4.7c0-0.2-0.2-0.4-0.5-0.4l-10.5,0C186.7,218.1,186.5,218.4,186.5,218.7z"/>
			<path class="st10" d="M202.5,218.7L202.5,218.7l1,4.7c0.1,0.2,0.2,0.4,0.5,0.4l10.7,0c0.2,0,0.4-0.1,0.4-0.3c0-0.1,0-0.2,0-0.3
				l-1.3-4.7c-0.1-0.2-0.2-0.4-0.4-0.4l-10.4,0C202.7,218.1,202.4,218.4,202.5,218.7z"/>
			<path class="st10" d="M219,218.1c-0.3,0-0.5,0.3-0.4,0.7l0,0l1.4,4.6c0.1,0.2,0.2,0.4,0.4,0.4l10.7,0c0.2,0,0.4-0.1,0.4-0.3
				c0-0.1,0.1-0.2,0-0.4l-1.6-4.7c-0.1-0.2-0.2-0.3-0.4-0.3L219,218.1z"/>
		</g>
		<g>
			<defs>
				<rect id="SVGID_1_" x="96.8" y="77.3" width="130.3" height="131.6"/>
			</defs>
			<clipPath id="SVGID_2_">
				<use xlink:href="#SVGID_1_"  style="overflow:visible;"/>
			</clipPath>
			<g class="st11">
				<g>
					<path class="st12" d="M221.7,99.7c-33.6,4.5-59.9-18.6-59.9-18.6s-26.3,23.1-59.9,18.6c0,0-10.3,104.8,59.9,122.6
						C232.1,204.5,221.7,99.7,221.7,99.7z"/>
					<g>
						<path class="st7" d="M116.8,112.6c4.2,0.6,8.2,0.5,12,0.1l-5.9-4.9c-3.8,0.3-7.9,0.2-12-0.3c0,0-8.8,89.1,50.9,104.3v-6.9
							C109,191.4,116.8,112.6,116.8,112.6z"/>
						<path class="st7" d="M161.9,98.6c0,0-13.8,12.1-33,14.1l33,27.8V98.6z"/>
						<path class="st7" d="M116.8,112.6c0,0-7.8,78.8,45.1,92.2v-1.4v-62.8l-33-27.8C125,113.1,121,113.1,116.8,112.6z"/>
					</g>
					<g>
						<path class="st7" d="M161.9,204.8v6.9c17.8-4.5,29.5-15.6,37.2-29l-4.7-3C187.6,191.3,177.3,200.9,161.9,204.8z"/>
						<path class="st7" d="M212.8,107.5c-28.6,3.8-50.9-15.8-50.9-15.8s-16.3,14.3-38.9,16.1l5.9,4.9c19.2-2,33-14.1,33-14.1l0,0
							c0,0,19.8,17.3,45,14c0,0,3.9,39.4-12.5,67.2l4.7,3C217.1,151.3,212.8,107.5,212.8,107.5z"/>
						<path class="st13" d="M194.4,179.8l-3.8-2.4L194.4,179.8c16.4-27.8,12.5-67.2,12.5-67.2c-25.3,3.4-45-14-45-14l0,0v41.9
							l30.4,25.6l-30.4-25.6v62.8v1.4v0C177.3,200.9,187.6,191.3,194.4,179.8z"/>
					</g>
				</g>
				<g>
					<linearGradient id="SVGID_3_" gradientUnits="userSpaceOnUse" x1="148.6979" y1="194.4316" x2="178.4166" y2="175.8574">
						<stop  offset="0.1498" style="stop-color:#FE8926"/>
						<stop  offset="0.8991" style="stop-color:#FF625F"/>
					</linearGradient>
					<path class="st14" d="M168.1,183h12.3c2.7,0,5-2.3,5-5v-15.8C182,171.2,175.8,178.6,168.1,183z"/>
					<path class="st15" d="M161,113.5c-10.6,0-19.4,9.8-19.4,21.9v6.1h4.1v-6.2c0-9.5,6.9-17.3,15.3-17.3s15.3,7.8,15.3,17.3v6.2
						h4.1v-6.1C180.3,123.4,171.6,113.5,161,113.5z"/>
					<linearGradient id="SVGID_4_" gradientUnits="userSpaceOnUse" x1="136.5977" y1="173.213" x2="166.0575" y2="154.8006">
						<stop  offset="0.1498" style="stop-color:#FE8926"/>
						<stop  offset="0.8991" style="stop-color:#FF625F"/>
					</linearGradient>
					<path class="st16" d="M180.4,141.5L180.4,141.5h-4.2h-30.6h-4.1h-0.1c-2.7,0-5,2.3-5,5V178c0,2.8,2.2,5,5,5h26.6
						c7.7-4.4,13.8-11.8,17.3-20.8v-15.7C185.4,143.7,183.1,141.5,180.4,141.5z M161,151.7c3.4,0,6.1,2.8,6.1,6.2
						c0,2.6-1.6,4.8-3.8,5.7v7.7v1.5h-4.6v-1.5v-7.7c-2.2-0.9-3.8-3.1-3.8-5.7C154.9,154.5,157.6,151.7,161,151.7z"/>
					<path class="st17" d="M167.1,157.9c0-3.4-2.7-6.2-6.1-6.2c-3.4,0-6.1,2.8-6.1,6.2c0,2.6,1.6,4.8,3.8,5.7v7.7
						c0.7,0.1,1.5,0.2,2.3,0.2c0.8,0,1.5-0.1,2.3-0.2v-7.7C165.5,162.7,167.1,160.5,167.1,157.9z"/>
					<path class="st18" d="M158.7,171.3v1.5h4.6v-1.5c-0.7,0.1-1.5,0.2-2.3,0.2C160.2,171.5,159.4,171.4,158.7,171.3z"/>
				</g>
			</g>
		</g>
	</g>
	<g>
		<path class="st19" d="M79.9,245.4l3.3,0.9c-0.1,0.8-0.1,0.8-0.1,0.8h-7.9l0-1.2l3.4-1.2L79.9,245.4z"/>
		<path class="st20" d="M69.3,209.8c0,0-8.8,20.5-11.5,23.7c-2.7,3.2-5.6,7.6-5.6,7.6s0.9,1.1,2.5,1.3c1.6,0.1,11.4-12.7,12.1-13.6
			c0.8-0.9,10.6-21.1,10.6-21.1L69.3,209.8z"/>
		<g>
			<path class="st21" d="M77.5,189.2l0.5-4.2l0.3-1.2c0,0,4.1,1.2,4.2,1.5s-1.3,5.9-1.3,5.9L77.5,189.2z"/>
			<path class="st22" d="M79.4,185.6c0,0,2.3,2.4,2.6,2.4l0.4-1.7C82.3,186,79.5,185.6,79.4,185.6z"/>
			<path class="st21" d="M78.3,177c0.2-0.1,0.5-0.2,0.7-0.3C78.8,176.8,78.6,176.9,78.3,177z"/>
			<path class="st21" d="M83,178.9c0,0-0.2,0.6-0.5,0.9c-0.3,0.3-1,0.6-1,0.6l-0.6,2.2l-1.5-0.2l-0.7,0l-0.7,2.6
				c0.8,0.6,1.8,0.9,2.8,0.8c2.3-0.3,4-2.5,3.8-5.1c-0.1-0.6-0.2-1.2-0.5-1.7c-0.1,0-0.2,0-0.3,0C83.6,179,83,178.9,83,178.9z"/>
			<path class="st23" d="M79.8,176.5c-0.3,0-0.5,0.1-0.7,0.2c-0.3,0.1-0.5,0.2-0.7,0.3c-1.5,0.8-2.3,2.6-2.1,4.6
				c0.1,1.4,0.8,2.6,1.8,3.3l0.7-2.6l0.7,0l1.5,0.2l0.6-2.2c0,0,0.7-0.3,1-0.6c0.3-0.3,0.5-0.9,0.5-0.9s0.6,0.1,0.9,0.1
				c0.1,0,0.2,0,0.3,0C83.3,177.4,81.6,176.3,79.8,176.5z"/>
			<path class="st21" d="M84.7,180.6c0.2,2.5-1.5,4.8-3.8,5.1c-2.3,0.3-4.4-1.6-4.7-4.1c-0.2-2.5,1.2-4.8,3.5-5
				C82.1,176.3,84.4,178.1,84.7,180.6z"/>
			<path class="st21" d="M79.8,185.7c0,0,3.6,1.7,4.4,1.1c0.4-0.3,1.1-4.3,0.5-6.2c-0.6-1.9-3.6,0.7-3.9,1.5S79.5,185,79.8,185.7z"
				/>
			<path class="st23" d="M84.2,179c-0.8-1.6-2.4-2.6-4.2-2.5c-2.7,0.3-4,2.5-3.8,5.1c0.1,1.4,0.8,2.6,1.8,3.3l0.7-2.6l0.7,0l1.5,0.2
				l0.6-2.2c0,0,0.7-0.3,1-0.6c0.3-0.3,0.5-0.9,0.5-0.9s0.6,0.1,0.9,0.1C84,179,84.1,179,84.2,179z"/>
			<path class="st21" d="M80.3,182c0.1,0.7-0.3,1.3-0.9,1.4c-0.5,0.1-1-0.5-1.1-1.2c-0.1-0.7,0.3-1.3,0.9-1.4
				C79.7,180.7,80.2,181.3,80.3,182z"/>
			<path class="st23" d="M83.8,179c0,0,1.6,0.2,1.6-0.8s-0.8-2.2-2.8-2.1c-2,0.1-3.6,0.4-4.4,1c-0.9,0.5,3.9,1.3,3.9,1.3L83.8,179z"
				/>
		</g>
		<path class="st23" d="M68.5,210.9c0,0-0.6,2.4,0.8,4.5c1.4,2.1,8.3,12.8,8.3,12.8l-2.3,17.8h1.1l2.8-0.8c0,0,2.2-11.3,2.9-14.1
			c0.7-2.7-4.6-23.7-4.6-23.7L68.5,210.9z"/>
		<path class="st19" d="M53,241.5v1.5l3.5,4.2h1.9l0.5-0.8l0,0l0,0c-0.4-0.4-0.9-0.7-1.4-0.9l-0.6-0.2l-1.6-4.4L53,241.5z"/>
		<path class="st24" d="M77.4,189.1c0,0-3.6,3.7-4.9,8.8c-1.3,5.1-5.6,14.1-5.6,14.1l12.7-0.6l2.4-21.1L77.4,189.1z"/>
		<path class="st25" d="M75.7,197.4c0.6,0.4,1.3,0.9,2.1,1.3c1.2,0.6,2.2,0.9,3.1,1.1c0.2-1.7,0.4-3.3,0.6-5L75.7,197.4z"/>
		<path class="st24" d="M98.3,183.2c-0.6-3-1-2.5-2-1.8c-1,0.7,0,0.9-1.1,2.7c-1.1,1.7-15.5,6.8-15.5,6.8s-3.8,1-4.4,2.7
			c-0.6,1.7-0.3,3.9,1,4.2c1.3,0.3,3.4-0.4,3.4-0.4s17.8-9.7,18.3-10.6C98.4,185.9,98.8,186.2,98.3,183.2z"/>
		<path class="st21" d="M96.2,181.3c-1,0.6-0.2,0.9-0.9,2.3c0.2,1.5,1.3,2.6,2.7,2.8c0.4-0.6,0.7-0.6,0.2-3.2
			C97.7,180.2,97.3,180.7,96.2,181.3z"/>
	</g>
	<polygon class="st15" points="159.6,179 98.4,187 97.1,175.6 158.4,167.5 	"/>
	<rect x="101.7" y="189.2" class="st15" width="61.7" height="11.6"/>
	<g>
		<g>
			<ellipse class="st26" cx="219.9" cy="139.7" rx="20.1" ry="21.9"/>
			<g>
				<path class="st5" d="M236.3,183.2C236.3,183.2,236.2,183.2,236.3,183.2L236.3,183.2l-0.2-0.1c-0.1-0.1-0.2-0.1-0.3-0.2
					c-0.2-0.1-0.3-0.3-0.5-0.4c-0.3-0.3-0.7-0.6-1-0.9c-0.7-0.6-1.3-1.3-1.9-2c-1.2-1.4-2.2-2.9-3.1-4.6c-0.9-1.6-1.6-3.3-2.2-5.1
					c-0.6-1.8-1-3.6-1.4-5.5l0,0c-0.1-0.3-0.4-0.5-0.7-0.5c-0.3,0.1-0.5,0.3-0.5,0.7c0.2,1.9,0.5,3.9,1,5.8c0.5,1.9,1.1,3.8,1.9,5.6
					c0.8,1.8,1.8,3.5,3,5.2c0.6,0.8,1.2,1.6,1.9,2.3c0.3,0.4,0.7,0.7,1.1,1.1c0.2,0.2,0.4,0.4,0.6,0.5c0.1,0.1,0.2,0.2,0.3,0.3
					l0.2,0.1l0.1,0.1l0.1,0.1c0.7,0.4,1.6,0.3,2-0.4C237.1,184.6,236.9,183.7,236.3,183.2z"/>
				<polygon class="st5" points="238,237.5 237.4,240.2 236.1,240 236.5,236.9 				"/>
				<path class="st27" d="M238.7,238l-3.2-0.3c0,0-0.9-21.9-0.5-26c0.4-4.1,0-12.1,0-12.1l3.6,2.5l1.8,13.4l0.8,2.1
					c0,0-1.6,3.8-1.6,6.5C239.6,226.7,241,231.2,238.7,238z"/>
				<path class="st27" d="M238,239.6l-2.5,0.4c0,0-2.6,1.5-2.2,2.4c0.4,1,4.8-0.4,4.8-0.4S238.2,239.8,238,239.6z"/>
				<polygon class="st5" points="253.3,216.7 255.1,214.7 256.2,216 254,218 				"/>
				<path class="st5" d="M235.5,169.4c0,0-1,2.4-1,2.6c-0.3,1.1-1.2,5.4,1.8,5.8l-0.7,3.4l-1.3,1.9c0,0,2.3-0.2,4.4-1.2l2.2-8.5
					l-1.8-2.2l-2.5-1.6L235.5,169.4z"/>
				<path class="st28" d="M237.3,181.4l-2.3,0.3c0,0-3.3,5.4-2.9,7c0.4,1.6,2.5,8.2,2.6,10.3l6.6-0.7c0,0,0.6-10.3,0.5-13.2
					c-0.1-2.8-1.3-3.9-1.3-3.9L237.3,181.4z"/>
				<path class="st29" d="M234.8,199c0,0,4.1,23.4,9.1,27.1c5.8,4.4,12.6-7.5,12.6-7.5l-4.2-3.7c0,0-5.2,9.6-6.9,4.9
					c-1.7-4.7,0.3-13.6-0.8-16c-1.1-2.4-3.3-5.6-3.3-5.6L234.8,199z"/>
				<path class="st27" d="M254.5,214.5l1.7,2c0,0,2.6,1.5,3.1,0.5s-3.1-4-3.1-4S254.5,214.2,254.5,214.5z"/>
				<path class="st29" d="M234.4,168.5c0,0-1.1,2.2,2.3,2.5c3.4,0.3,2.7,1.5,2.7,1.5s-4.5,5.9,0.6,7.8c2.9,1.1,7-3.5,5.2-7.9
					c-1.8-4.4,0.1-3.8-3.6-4.6C238,167,238,165.3,234.4,168.5z"/>
				<path class="st29" d="M240.4,168.7c0-0.2-1.8-5.2,1.6-4.3c3.4,0.9,7.7,4,5.4,5.6c-2.3,1.5-4.2,1.8-5,1.2
					C241.8,170.6,240.4,168.7,240.4,168.7z"/>
				<path class="st5" d="M241.5,184.9C241.5,184.9,241.5,184.8,241.5,184.9l0-0.1l0-0.2c0-0.1,0-0.2,0-0.3c0-0.2,0-0.5,0-0.7
					c0-0.5,0-0.9,0-1.4c0-0.9,0.1-1.9,0.2-2.8c0.2-1.9,0.7-3.7,1.3-5.5c0.6-1.8,1.3-3.5,2.2-5.1c0.9-1.6,1.9-3.2,3-4.6l0,0
					c0.2-0.3,0.2-0.7-0.1-0.9c-0.2-0.2-0.6-0.2-0.8,0c-1.3,1.4-2.4,2.9-3.5,4.5c-1.1,1.6-2,3.3-2.7,5.2c-0.8,1.8-1.4,3.8-1.8,5.8
					c-0.2,1-0.4,2-0.5,3.1c0,0.5-0.1,1.1-0.1,1.6c0,0.3,0,0.5,0,0.8c0,0.1,0,0.3,0,0.4l0,0.2l0,0.1l0,0.1c0.1,0.8,0.8,1.5,1.6,1.4
					C241,186.4,241.6,185.7,241.5,184.9z"/>
			</g>
			<g>
				<path class="st9" d="M217.4,115.3c-12.6,1.7-21.5,14.3-19.9,27.9c1.6,13.7,13.1,23.4,25.7,21.6c5.5-0.8,10.3-3.6,13.8-7.7
					l18.1,15.3c1.2,1,4.6,2.1,5.5,0.8s-1.1-4.6-2.3-5.6L243,154.7l-2.7-2.3c2.4-4.5,3.4-9.9,2.8-15.5
					C241.4,123.2,230,113.5,217.4,115.3z M222.7,160.8c-10.5,1.5-20.1-6.7-21.5-18.1c-1.3-11.5,6.1-21.9,16.6-23.4
					c10.5-1.5,20.1,6.7,21.5,18.1C240.7,148.9,233.2,159.3,222.7,160.8z"/>
				<path class="st30" d="M260.6,173.3L260.6,173.3c-0.9,1.3-2.6,1.5-3.8,0.5l-14.6-12.3c-1.2-1-1.4-2.9-0.5-4.2l0,0
					c0.9-1.3,2.6-1.5,3.8-0.5l14.6,12.3C261.3,170.1,261.5,172,260.6,173.3z"/>
			</g>
			<path class="st5" d="M241.5,184.9C241.5,184.9,241.5,184.8,241.5,184.9l0-0.1l0-0.2c0-0.1,0-0.2,0-0.3c0-0.2,0-0.5,0-0.7
				c0-0.5,0-0.9,0-1.4c0-0.9,0.1-1.9,0.2-2.8c0.2-1.9,0.7-3.7,1.3-5.5c0.6-1.8,1.3-3.5,2.2-5.1c0.9-1.6,1.9-3.2,3-4.6l0,0
				c0.2-0.3,0.2-0.7-0.1-0.9c-0.2-0.2-0.6-0.2-0.8,0c-1.3,1.4-2.4,2.9-3.5,4.5c-1.1,1.6-2,3.3-2.7,5.2c-0.8,1.8-1.4,3.8-1.8,5.8
				c-0.2,1-0.4,2-0.5,3.1c0,0.5-0.1,1.1-0.1,1.6c0,0.3,0,0.5,0,0.8c0,0.1,0,0.3,0,0.4l0,0.2l0,0.1l0,0.1c0.1,0.8,0.8,1.5,1.6,1.4
				C241,186.4,241.6,185.7,241.5,184.9z"/>
		</g>
		<path class="st15" d="M217.1,127.1c0-2.5,1.8-4.5,4.1-4.5c2.3,0,4.1,2,4.1,4.5c0,2.5-1.8,4.5-4.1,4.5
			C218.9,131.6,217.1,129.6,217.1,127.1z"/>
		<path class="st15" d="M228.7,130c0-1.1,0.8-2,1.9-2s1.9,0.9,1.9,2c0,1.1-0.8,2-1.9,2S228.7,131.1,228.7,130z"/>
	</g>
	<ellipse class="st6" cx="107.9" cy="194.4" rx="2.4" ry="2.6"/>
	<ellipse class="st6" cx="115.6" cy="194.4" rx="2.4" ry="2.6"/>
	<ellipse class="st6" cx="123.2" cy="194.4" rx="2.4" ry="2.6"/>
	<ellipse class="st6" cx="130.9" cy="194.4" rx="2.4" ry="2.6"/>
	<ellipse class="st6" cx="138.6" cy="194.4" rx="2.4" ry="2.6"/>
	<ellipse class="st6" cx="146.2" cy="194.4" rx="2.4" ry="2.6"/>
	<ellipse class="st6" cx="154.5" cy="194.4" rx="2.4" ry="2.6"/>
	<path class="st6" d="M101.8,179.9c-0.2-1.4,0.8-2.7,2.1-2.9c1.3-0.2,2.5,0.8,2.6,2.2c0.2,1.4-0.8,2.7-2.1,2.9
		C103.1,182.3,101.9,181.3,101.8,179.9z"/>
	<path class="st6" d="M109.4,178.9c-0.2-1.4,0.8-2.7,2.1-2.9c1.3-0.2,2.5,0.8,2.6,2.2c0.2,1.4-0.8,2.7-2.1,2.9
		C110.7,181.3,109.6,180.3,109.4,178.9z"/>
	<path class="st6" d="M117,177.9c-0.2-1.4,0.8-2.7,2.1-2.9c1.3-0.2,2.5,0.8,2.6,2.2c0.2,1.4-0.8,2.7-2.1,2.9
		C118.4,180.3,117.2,179.3,117,177.9z"/>
	<path class="st6" d="M124.6,176.9c-0.2-1.4,0.8-2.7,2.1-2.9c1.3-0.2,2.5,0.8,2.6,2.2c0.2,1.4-0.8,2.7-2.1,2.9
		C126,179.3,124.8,178.3,124.6,176.9z"/>
	<g>
		<polygon class="st31" points="173.5,107.1 173.2,110.5 171.7,110.3 171.5,106.9 		"/>
		<polygon class="st31" points="187.8,105.1 189,108.2 187.5,108.8 186,105.8 		"/>
		<path class="st19" d="M173.9,109.6l-2.6,0.4c0,0-2.6,1.9-3.6,1.9s-2,1.1-1,1.3s7.4-0.3,7.4-0.3L173.9,109.6z"/>
		<path class="st19" d="M191.5,82.7c0,0-13.6,1.9-13.2,6.2c0.4,4.2-4,18.5-4,18.5l-3.6-0.1c0,0,2.6-18.1,2.6-20.6
			c0-2.5,12.7-8.1,12.7-8.1L191.5,82.7z"/>
		<path class="st28" d="M190.8,55.8l-3.9,1.8c0,0-3,17.3-2.2,20c0.7,2.6,3.6,2.2,3.6,2.2l7.4-0.3l-0.6-9.8L190.8,55.8z"/>
		<path class="st31" d="M184.4,48.5c0,0-1,6.6,2.9,6.6l-0.2,4.5l3.6-1.7l-0.2-10l-4.7-0.2L184.4,48.5z"/>
		<path class="st23" d="M188,48.4c0,0-4.3,1-4.3,0.1c-0.1-0.9-0.9-5.1,3.1-3.6c3.9,1.4,5.4,1.4,5,3.5c-0.4,2-1.1,4.5-1.1,4.5
			l-0.8-0.3l-0.5-2.1c0,0,1.5-0.9,0.5-1.7s-1.2,0.6-1.2,0.6L188,48.4z"/>
		<path class="st23" d="M189.2,107.7l-2.6,1.1c0,0-0.2,2-1.2,2.3c-1,0.3-2.6,1.1-2.4,1.8c0.2,0.7,4.6-0.3,4.6-0.3l2.9-2.5
			L189.2,107.7z"/>
		<path class="st31" d="M179.8,74.9c-0.1,0-0.2,0-0.2,0c-0.1,0-0.2,0-0.3,0c-0.2,0-0.4,0-0.5-0.1c-0.4-0.1-0.7-0.1-1.1-0.3
			c-0.3-0.1-0.6-0.3-0.9-0.5c-0.3-0.2-0.5-0.5-0.7-0.8l0-0.1c-0.2-0.3-0.6-0.3-0.8-0.1c-0.2,0.2-0.3,0.5-0.2,0.8
			c0.2,0.5,0.5,0.9,0.9,1.3c0.4,0.4,0.8,0.7,1.2,0.9c0.4,0.2,0.9,0.4,1.3,0.5c0.2,0.1,0.4,0.1,0.7,0.2c0.1,0,0.2,0,0.3,0.1
			c0.1,0,0.2,0,0.4,0l0.1,0c0.5,0,1-0.4,1-1s-0.4-1-0.9-1.1C179.9,74.9,179.8,74.9,179.8,74.9z"/>
		<path class="st32" d="M191.1,56.7c0,0-5.3-0.7-3.6,5.2c1.6,5.9,4.3,8.3,0.5,9.7c-3.7,1.3-8.6,2.9-8.6,2.9l0.3,3.2
			c0,0,16.2,0.8,16.5-3.5c0.3-4.4-2-13-2.4-13.9C193.4,59.4,191.9,57.2,191.1,56.7z"/>
		<path class="st23" d="M195.1,78.7c0,0,2.3,4.3-1,6.8c-2.8,2.1-11.5,2.4-11.2,3.1c0.6,1.5,6.4,17.3,6.4,17.3l-3.5,0.9
			c0,0-8.7-13.7-9.3-17.9c-0.5-4.2,9.6-9.6,9.6-9.6L195.1,78.7z"/>
		<path class="st7" d="M170.4,73.7h14.8c0.5,0,0.9-0.5,0.9-1l0,0c0-0.6-0.4-1-0.9-1h-14.8c-0.5,0-0.9,0.5-0.9,1l0,0
			C169.5,73.2,169.9,73.7,170.4,73.7z"/>
		<path class="st7" d="M171.5,71.8l-6.5-14c-0.2-0.5-0.8-0.7-1.3-0.5v0c-0.5,0.2-0.7,0.8-0.4,1.3l6.5,14c0.2,0.5,0.8,0.7,1.3,0.5
			l0,0C171.5,72.9,171.7,72.3,171.5,71.8z"/>
	</g>
	<g>
		<path class="st33" d="M110.6,64.9c-0.5-0.6,1.4-2.8,0.5-4.5c-0.5-0.9-1.6-1.1-1.7-2.2c-0.1-0.7,0.3-1.1,0.1-1.3
			c-0.3-0.3-1.3,0.4-3.1,1.3c-3.1,1.7-3.9,1.6-4.2,1.5c-0.7-0.1-1.3-0.5-1.7-0.9c-8.1,0.8-15.8-3.2-20.4-10.2c0,0,0,0,0,0
			c-1.5,1.2-1.2,3-2.3,3.1c0,0-0.1,0-1.6-0.4c-0.5-1.6-0.8-1.9-1-1.8c-0.5,0.1-0.9,2.8,0.1,3.6c0.3,0.3,0.7,0.2,0.9,0.6
			c0.2,0.5-0.3,0.9-0.2,1.5c0.2,1,1.7,0.9,2.2,2.1c0.3,0.8-0.2,1.5,0.2,1.8c0.4,0.5,1.3-0.3,2.4-0.4c1.5-0.1,2.1,1.2,4.9,3.2
			c1,0.7,1.9,1.3,3.2,1.9c3,1.4,4.5,0.8,5.2,1.9c0.7,1.2,0,3.3-0.8,4.4c-1.2,1.7-3.1,1.9-3.6,1.9c-0.3,0-0.6,0-0.8,0
			c3.6,1.1,7.5,1.3,11.4,0.4c4.7-1.2,8.7-3.9,11.7-7.5C111.3,65.1,110.8,65.1,110.6,64.9z"/>
		<path class="st33" d="M78.5,63.6c0-1.2,0.6-1.7,0.2-2.8c-0.4-1.3-1.5-1.1-2.1-2.7c-0.3-0.8-0.2-1.3-0.7-2.1
			c-0.3-0.5-0.6-0.6-0.9-1c-0.8-0.8-1-1.8-1.2-2.7c-0.2-1-0.6-2.1-1.1-3.6c0,1.7,0.2,3.5,0.6,5.3c1.6,7.4,6,13.2,11.8,16.4
			c-0.7-0.5-1.5-1.1-2.4-1.8C80.2,66.7,78.6,65.4,78.5,63.6z"/>
		<path class="st30" d="M98.8,53.3c0.5-1.1,1.4-1.3,1.6-2.4c0.1-0.7-0.4-0.9-0.2-1.5c0.1-0.7,0.8-0.9,1.9-1.7c1.9-1.4,2.2-2.6,3-2.4
			c0.6,0.1,0.6,0.8,1.4,1c1.3,0.4,2.7-0.7,2.7-1.1c0-0.2-0.5-0.2-0.5-0.4c0-0.3,0.7-0.4,1.4-1c0.4-0.3,1.2-0.9,1.2-1.8
			c0-0.7-0.4-1.5-0.9-1.5c-0.5,0-0.6,0.9-1.1,0.9c-0.4,0-0.8-0.8-0.8-1.5c0-0.2,0.1-0.4,0.2-0.6c-0.2,0.1-0.5,0.3-0.7,0.4
			c0.1,0.2,0.1,0.4,0.1,0.6c-0.1,0.5-0.5,0.5-0.5,0.9c0,0.6,0.9,1,0.8,1.3c-0.1,0.2-0.3,0.2-0.6,0.2c-0.8-0.1-0.9-1-1.7-1.3
			c-0.9-0.4-2,0.1-2,0.3c0,0.2,1.8-0.1,2.1,0.7c0,0.1,0.1,0.3,0,0.4c-0.1,0.2-0.5,0.1-0.7,0c-0.9-0.2-1.5-0.4-2-0.3
			c-0.4,0.1-0.6,0.5-1,1.2c-0.2,0.4-0.5,0.9-0.5,1.5c0,0.4,0.1,0.4,0.2,0.8c0,0.8-0.6,1.7-1.5,1.9c-0.1,0-0.6,0.1-1.1-0.3
			c-0.4-0.3-0.7-1-0.5-1.5c0.2-0.9,1.4-0.9,1.5-1.6c0.1-0.5-0.5-0.7-0.5-1.4c0-0.4,0.2-0.6,0.3-1.2c-3.2,0-6.3-1-8.9-2.9
			c-0.4,0.1-0.8,0.3-1,0.7c-0.4,0.7,0,1.4-0.5,1.8c-0.4,0.4-1.2,0.3-1.6-0.2c-0.6-0.6-0.4-1.9-0.3-2.6c0.2-1.1,0.6-1.4,0.4-1.9
			c-0.3-0.7-1.4-0.6-1.4-1.2c0-0.2,0.1-0.5,0.4-0.9c-0.1-0.2-0.3-0.4-0.4-0.6c-0.4,0.1-0.8,0.4-1.2,0.7c-0.3,0.2-1.1,0.9-1,1.7
			c0.1,0.6,0.6,0.6,0.7,1.3c0.3,1.2-1,3-1.7,2.8c-0.1,0-0.2-0.1-0.5-0.5c-0.6-0.9-0.7-1.3-1-1.7c-0.2-0.2-0.9-1.2-1.6-1.1
			c-0.9,0.2-1,2.1-1.1,2.3c-0.1,0.8,0,2.1,0.6,2.3c0.4,0.1,0.6-0.4,1.3-0.6c1.3-0.4,2.6,1,3,1.4c0.8,0.9,1.7,2.3,1.4,2.8
			c-0.1,0.2-0.7,0.2-1.9,0.1c-1.2-0.1-1.6-0.2-1.8,0c-0.3,0.4,0.2,0.9,0,1.6c-0.3,0.8-1.2,0.6-2.2,1.4c4.6,7,12.3,11,20.4,10.2
			c-0.3-0.3-0.6-0.6-0.7-0.8C98.8,56.8,98.2,54.7,98.8,53.3z"/>
		<path class="st30" d="M83.9,28.1c-2.8,3.6-3.4,4.9-3.1,5.4c0.4,0.5,1.8,0.1,2,0.7c0.2,0.5-0.7,1.1-0.5,1.5
			c0.1,0.3,0.6,0.2,0.8,0.2c0.4,0,1.1-0.2,1.2-0.7c0.1-0.5-0.5-0.7-0.6-1.5C83.7,33,84,32.3,84.5,32c0.4-0.3,0.9-0.2,1.6,0.1
			c-0.5-1.2-1-2.5-1.2-3.8c-0.1-0.5-0.2-0.9-0.2-1.4c0,0-0.1,0-0.1,0.1C84.5,27.2,84.3,27.6,83.9,28.1z"/>
		<path class="st34" d="M86.1,32.1c0.3,0.1,0.6,0.3,1,0.5c0.7,0.4,1.3,0.6,1.3,0.9c0,0.3-0.5,0.3-1.2,0.6c0.1,0.2,0.3,0.4,0.4,0.6
			c0,0,0,0,0,0c1.1-1.4,3.4-2.4,4.5-1.5c0.2,0.2,0.4,0.4,0.8,0.4c0.5,0,0.8-0.6,1-0.5c0.1,0.1,0.1,0.5,0,0.9
			c-0.2,1.2-0.3,1.8-0.3,2.2c-0.2,1.4,0.2,1.4,0,1.9c-0.3,0.7-1.1,0.6-1.9,0.8c2.6,1.9,5.7,2.9,8.9,2.9c0,0,0-0.1,0-0.1
			c0.2-0.8,0-1,0.1-1.5c0.3-1.2,1.8-0.9,2.4-2.1c0.5-0.9,0.2-2.3-0.5-2.9c-0.5-0.5-1.2-0.7-1.3-0.5c-0.1,0.2,0.5,0.7,0.6,1.7
			c0,0.1,0.2,1.4-0.4,2c-0.6,0.5-1.6,0.2-2.2-0.4c-1.3-1.2-1.1-4,0.2-5.4c0.5-0.5,1.4-1.1,1.9-0.7c0.5,0.3,0.3,1.3,0.7,1.4
			c0.2,0.1,0.6-0.2,0.7-0.5c0.1-0.5-0.6-0.8-1-1.7c-0.3-0.8,0.1-1.1-0.1-1.8c-0.3-1.1-1.4-1.3-3.8-2.7c-1.7-1-2.5-1.5-2.5-1.8
			c0-0.2,0.1-0.4,0.4-0.5c-1.8,0-3.7,0.2-5.6,0.6c-2,0.5-3.8,1.3-5.5,2.2c0.1,0.5,0.1,0.9,0.2,1.4C85.2,29.6,85.6,30.9,86.1,32.1z"
			/>
		<path class="st34" d="M109.8,37.8c-0.1-0.4-0.8-0.8-1.3-0.6c-0.5,0.2-0.8,0.7-0.8,1.1c-0.1,0.6,0.3,1,0.5,1.4
			c0.2-0.1,0.5-0.3,0.7-0.4C109.2,38.6,109.9,38.3,109.8,37.8z"/>
		<path class="st8" d="M117.7,47.1c-3,5.5-8,9.6-14.2,11.2c-1,0.3-2,0.4-3,0.5c0.4,0.4,1,0.7,1.7,0.9c0.4,0.1,1.1,0.1,4.2-1.5
			c1.8-1,2.8-1.7,3.1-1.3c0.2,0.2-0.2,0.6-0.1,1.3c0.1,1.1,1.2,1.3,1.7,2.2c0.9,1.7-1,3.9-0.5,4.5c0.2,0.2,0.7,0.2,1.4,0
			C115.9,60.1,118.1,53.7,117.7,47.1z"/>
		<path class="st8" d="M100.6,41.8c-0.2,0.6-0.3,0.7-0.3,1.2c0,0.8,0.6,0.9,0.5,1.4c-0.1,0.8-1.3,0.7-1.5,1.6
			c-0.1,0.5,0.1,1.1,0.5,1.5c0.4,0.4,1,0.3,1.1,0.3c0.9-0.2,1.5-1.1,1.5-1.9c0-0.3-0.1-0.4-0.2-0.8c0-0.6,0.2-1.1,0.5-1.5
			c0.4-0.7,0.6-1,1-1.2c0.5-0.2,1.2,0,2,0.3c0.2,0.1,0.5,0.2,0.7,0c0.1-0.1,0-0.3,0-0.4c-0.3-0.8-2.1-0.5-2.1-0.7
			c0-0.1,1.1-0.7,2-0.3c0.8,0.4,0.9,1.3,1.7,1.3c0.2,0,0.5,0,0.6-0.2c0.1-0.3-0.8-0.7-0.8-1.3c0-0.4,0.4-0.4,0.5-0.9
			c0.1-0.2,0-0.4-0.1-0.6c-1.2,0.7-2.6,1.3-4,1.6C103,41.7,101.8,41.8,100.6,41.8z"/>
		
			<linearGradient id="SVGID_5_" gradientUnits="userSpaceOnUse" x1="922.1356" y1="208.5447" x2="943.0134" y2="208.5447" gradientTransform="matrix(0.9745 -0.2243 0.2243 0.9745 -848.2499 52.5852)">
			<stop  offset="6.284050e-02" style="stop-color:#D5EDFF"/>
			<stop  offset="0.8991" style="stop-color:#FFFFFF"/>
		</linearGradient>
		<path class="st35" d="M113.7,34.4c-1.3,2-2.9,3.6-4.8,4.9c-0.1,0.2-0.1,0.4-0.2,0.6c0,0.7,0.4,1.5,0.8,1.5c0.4,0,0.6-0.9,1.1-0.9
			c0.4,0,0.9,0.8,0.9,1.5c0,0.9-0.9,1.5-1.2,1.8c-0.7,0.6-1.5,0.7-1.4,1c0,0.2,0.5,0.2,0.5,0.4c0.1,0.4-1.4,1.5-2.7,1.1
			c-0.8-0.3-0.8-0.9-1.4-1c-0.9-0.1-1.1,1-3,2.4c-1.1,0.8-1.8,1-1.9,1.7c-0.1,0.6,0.3,0.8,0.2,1.5c-0.2,1.2-1.1,1.4-1.6,2.4
			c-0.7,1.5,0,3.5,0.9,4.8c0.1,0.2,0.4,0.5,0.7,0.8c1-0.1,2-0.3,3-0.5c6.2-1.5,11.2-5.7,14.2-11.2c-0.1-1.3-0.2-2.7-0.5-4.1
			C116.5,39.8,115.3,36.9,113.7,34.4z"/>
		
			<linearGradient id="SVGID_6_" gradientUnits="userSpaceOnUse" x1="925.8738" y1="193.306" x2="941.5034" y2="193.306" gradientTransform="matrix(0.9745 -0.2243 0.2243 0.9745 -848.2499 52.5852)">
			<stop  offset="6.284050e-02" style="stop-color:#D5EDFF"/>
			<stop  offset="0.8991" style="stop-color:#FFFFFF"/>
		</linearGradient>
		<path class="st36" d="M95.4,24.5c0,0.4,0.8,0.9,2.5,1.8c2.4,1.4,3.5,1.6,3.8,2.7c0.2,0.7-0.2,1,0.1,1.8c0.4,0.9,1.1,1.2,1,1.7
			c-0.1,0.3-0.4,0.6-0.7,0.5c-0.4-0.1-0.2-1.1-0.7-1.4c-0.5-0.3-1.3,0.2-1.9,0.7c-1.3,1.3-1.5,4.2-0.2,5.4c0.6,0.5,1.6,0.8,2.2,0.4
			c0.7-0.5,0.4-1.9,0.4-2c-0.2-1-0.8-1.4-0.6-1.7c0.1-0.2,0.9,0,1.3,0.5c0.7,0.7,0.9,2,0.5,2.9c-0.6,1.2-2.1,0.9-2.4,2.1
			c-0.1,0.5,0.1,0.7-0.1,1.5c0,0.1,0,0.1,0,0.1c1.2,0,2.3-0.2,3.5-0.4c1.4-0.4,2.8-0.9,4-1.6c-0.2-0.4-0.6-0.8-0.5-1.4
			c0.1-0.5,0.4-1,0.8-1.1c0.5-0.2,1.2,0.2,1.3,0.6c0.1,0.5-0.6,0.8-0.9,1.5c1.9-1.3,3.6-2.9,4.8-4.9c-4.1-6.3-10.7-10.2-17.9-10.4
			C95.5,24.2,95.4,24.4,95.4,24.5z"/>
		<path class="st8" d="M88.9,72.1c-1.3-0.4-2.6-1-3.9-1.7C86.5,71.4,87.7,72,88.9,72.1z"/>
		<path class="st8" d="M93.3,70.1c0.8-1.1,1.5-3.1,0.8-4.4c-0.7-1.2-2.2-0.6-5.2-1.9c-1.3-0.6-2.2-1.2-3.2-1.9
			c-2.8-2-3.4-3.2-4.9-3.2c-1.2,0.1-2,0.9-2.4,0.4c-0.4-0.4,0.1-1-0.2-1.8c-0.5-1.2-2-1.1-2.2-2.1c-0.1-0.6,0.4-1,0.2-1.5
			c-0.2-0.4-0.6-0.3-0.9-0.6c-1-0.8-0.6-3.6-0.1-3.6c0.2,0,0.5,0.3,1,1.8c1.5,0.4,1.6,0.4,1.6,0.4c1-0.2,0.8-1.9,2.3-3.1
			c0,0,0,0,0,0c-1.7-2.5-2.9-5.5-3.6-8.7c-0.3-1.4-0.5-2.7-0.5-4.1c-2.1,3.8-3.3,8.3-3.3,12.9c0.5,1.4,0.8,2.6,1.1,3.6
			c0.2,0.9,0.4,1.9,1.2,2.7c0.3,0.4,0.6,0.5,0.9,1c0.5,0.8,0.4,1.3,0.7,2.1c0.6,1.6,1.7,1.4,2.1,2.7c0.4,1.1-0.3,1.6-0.2,2.8
			c0.1,1.8,1.7,3.1,4.1,5c0.9,0.7,1.7,1.3,2.4,1.8c1.2,0.7,2.5,1.2,3.9,1.7c0.3,0,0.5,0,0.8,0C90.3,72,92.1,71.8,93.3,70.1z"/>
		
			<linearGradient id="SVGID_7_" gradientUnits="userSpaceOnUse" x1="904.0855" y1="194.2926" x2="915.7933" y2="194.2926" gradientTransform="matrix(0.9745 -0.2243 0.2243 0.9745 -848.2499 52.5852)">
			<stop  offset="6.284050e-02" style="stop-color:#D5EDFF"/>
			<stop  offset="0.8991" style="stop-color:#FFFFFF"/>
		</linearGradient>
		<path class="st37" d="M82.4,47.1c0.2-0.7-0.3-1.2,0-1.6c0.2-0.3,0.6-0.1,1.8,0c1.2,0.1,1.8,0.2,1.9-0.1c0.3-0.5-0.5-1.9-1.4-2.8
			c-0.4-0.4-1.7-1.8-3-1.4c-0.7,0.2-0.9,0.8-1.3,0.6c-0.5-0.2-0.6-1.5-0.6-2.3c0-0.2,0.2-2.1,1.1-2.3c0.7-0.1,1.4,0.9,1.6,1.1
			c0.3,0.4,0.4,0.8,1,1.7c0.3,0.5,0.4,0.5,0.5,0.5c0.7,0.2,2-1.6,1.7-2.8c-0.2-0.6-0.7-0.7-0.7-1.3c-0.1-0.8,0.7-1.5,1-1.7
			c0.4-0.4,0.8-0.6,1.2-0.7c-0.4-0.6-0.8-1.3-1.1-2c-0.7-0.3-1.2-0.4-1.6-0.1c-0.5,0.3-0.9,1-0.8,1.7c0.1,0.8,0.7,1,0.6,1.5
			c-0.1,0.5-0.8,0.7-1.2,0.7c-0.2,0-0.7,0.1-0.8-0.2c-0.2-0.4,0.6-1,0.5-1.5c-0.2-0.6-1.6-0.1-2-0.7c-0.3-0.5,0.3-1.8,3.1-5.4
			c0.4-0.5,0.6-0.9,0.7-1.2C81,29,78,32.1,76,35.8c0.1,1.3,0.2,2.7,0.5,4.1c0.7,3.2,1.9,6.2,3.6,8.7C81.1,47.8,82.1,48,82.4,47.1z"
			/>
		<path class="st8" d="M88.4,33.5c0-0.3-0.5-0.6-1.3-0.9c-0.4-0.2-0.7-0.3-1-0.5c0.3,0.7,0.7,1.4,1.1,2
			C87.9,33.8,88.4,33.8,88.4,33.5z"/>
		
			<linearGradient id="SVGID_8_" gradientUnits="userSpaceOnUse" x1="915.3517" y1="196.0956" x2="919.0852" y2="196.0956" gradientTransform="matrix(0.9745 -0.2243 0.2243 0.9745 -848.2499 52.5852)">
			<stop  offset="6.284050e-02" style="stop-color:#D5EDFF"/>
			<stop  offset="0.8991" style="stop-color:#FFFFFF"/>
		</linearGradient>
		<path class="st38" d="M87.2,35.6c0.1,0.6,1.1,0.5,1.4,1.2c0.2,0.5-0.2,0.8-0.4,1.9c-0.1,0.7-0.3,1.9,0.3,2.6
			c0.4,0.4,1.2,0.5,1.6,0.2c0.5-0.4,0-1.1,0.5-1.8c0.2-0.4,0.6-0.6,1-0.7c-1.6-1.1-3-2.6-4.1-4.2C87.3,35.1,87.2,35.3,87.2,35.6z"/>
		
			<linearGradient id="SVGID_9_" gradientUnits="userSpaceOnUse" x1="916.0372" y1="194.4835" x2="922.5466" y2="194.4835" gradientTransform="matrix(0.9745 -0.2243 0.2243 0.9745 -848.2499 52.5852)">
			<stop  offset="6.284050e-02" style="stop-color:#D5EDFF"/>
			<stop  offset="0.8991" style="stop-color:#FFFFFF"/>
		</linearGradient>
		<path class="st39" d="M93.6,38.1c0.2-0.5-0.1-0.6,0-1.9c0-0.4,0.2-1,0.3-2.2c0.1-0.4,0.1-0.8,0-0.9c-0.2-0.1-0.5,0.5-1,0.5
			c-0.3,0-0.6-0.3-0.8-0.4c-1.1-0.9-3.4,0.1-4.5,1.5c0,0,0,0,0,0c1.1,1.7,2.5,3.1,4.1,4.2C92.4,38.8,93.2,38.8,93.6,38.1z"/>
	</g>
</g>
<rect class="st40" width="300" height="300"/>
</svg>
