<svg xmlns="http://www.w3.org/2000/svg" xmlns:xlink="http://www.w3.org/1999/xlink" width="30.818" height="31.214" viewBox="0 0 30.818 31.214"><defs><style>.a{fill:#004f9b;}.b{fill:#fff;}.c{filter:url(#a);}</style><filter id="a" x="0" y="0" width="30.818" height="31.214" filterUnits="userSpaceOnUse"><feOffset dx="0.5" dy="0.5" input="SourceAlpha"/><feGaussianBlur stdDeviation="1.5" result="b"/><feFlood flood-opacity="0.239"/><feComposite operator="in" in2="b"/><feComposite in="SourceGraphic"/></filter></defs><g transform="translate(-287.182 -331.785)"><g class="c" transform="matrix(1, 0, 0, 1, 287.18, 331.79)"><path class="a" d="M10.909,0A11.013,11.013,0,0,0,0,11.107,11.013,11.013,0,0,0,10.909,22.214,11.013,11.013,0,0,0,21.818,11.107,11.013,11.013,0,0,0,10.909,0Z" transform="translate(4 4)"/></g><path class="b" d="M2.182,0H0V2.221H2.182Z" transform="translate(301 341.34)"/><path class="b" d="M2.182,0H0V6.664H2.182Z" transform="translate(301 345.782)"/></g></svg>