<?xml version="1.0" encoding="utf-8"?>
<!-- Generator: Adobe Illustrator 23.0.2, SVG Export Plug-In . SVG Version: 6.00 Build 0)  -->
<svg version="1.0" id="Capa_1" xmlns="http://www.w3.org/2000/svg" xmlns:xlink="http://www.w3.org/1999/xlink" x="0px" y="0px"
	 viewBox="0 0 24 24" style="enable-background:new 0 0 24 24;" xml:space="preserve">
<style type="text/css">
	.st0{fill:#858585;}
</style>
<g>
	<g>
		<g>
			<path class="st0" d="M20.9,11.6c-0.2-0.2-4-5.4-8.9-5.4s-8.7,5.2-8.9,5.4c-0.2,0.2-0.2,0.5,0,0.7c0.2,0.2,4,5.4,8.9,5.4
				s8.7-5.2,8.9-5.4C21,12.1,21,11.9,20.9,11.6z M12,16.5c-3.6,0-6.7-3.4-7.7-4.6c0.9-1.1,4-4.5,7.7-4.5c3.6,0,6.7,3.4,7.6,4.6
				C18.7,13.1,15.6,16.5,12,16.5z"/>
		</g>
	</g>
	<g>
		<g>
			<path class="st0" d="M12,8.4c-2,0-3.6,1.6-3.6,3.6s1.6,3.6,3.6,3.6s3.6-1.6,3.6-3.6S14,8.4,12,8.4z M12,14.4
				c-1.3,0-2.4-1.1-2.4-2.4s1.1-2.4,2.4-2.4s2.4,1.1,2.4,2.4S13.3,14.4,12,14.4z"/>
		</g>
	</g>
</g>
<g>
	<rect x="11.5" y="2" transform="matrix(0.5 -0.866 0.866 0.5 -4.393 16.3922)" class="st0" width="1" height="20"/>
</g>
</svg>
