<?xml version="1.0" encoding="utf-8"?>
<!-- Generator: Adobe Illustrator 23.0.2, SVG Export Plug-In . SVG Version: 6.00 Build 0)  -->
<svg version="1.1" id="Capa_1" xmlns="http://www.w3.org/2000/svg" xmlns:xlink="http://www.w3.org/1999/xlink" x="0px" y="0px"
	 viewBox="0 0 24 24" style="enable-background:new 0 0 24 24;" xml:space="preserve">
<style type="text/css">
	.st0{fill:#234E9B;}
</style>
<g>
	<path class="st0" d="M3.38,21.02C3.17,21.02,3,20.85,3,20.65c0-0.03,0-0.06,0.01-0.09l0.45-1.8c0.21-0.88,0.87-1.58,1.72-1.86
		l3.34-1.11c0.78-0.33,1.15-1.63,1.23-2.12c-0.62-0.51-1.02-1.24-1.11-2.03c0-0.27-0.08-0.38-0.12-0.4
		c-0.11-0.03-0.19-0.11-0.23-0.22c-0.22-0.52-0.35-1.08-0.41-1.64c0-0.03,0-0.06,0.01-0.09c0.05-0.22,0.18-0.41,0.36-0.55V6.74
		c0.08-2.04,1.72-3.68,3.76-3.76c2.3,0,2.93,1.18,3,1.76c0.39,0.29,0.76,0.79,0.76,2v1.99c0.18,0.13,0.31,0.33,0.36,0.55
		c0.01,0.03,0.01,0.06,0.01,0.09c-0.05,0.56-0.18,1.12-0.4,1.64c-0.04,0.11-0.14,0.2-0.26,0.23c-0.07,0.12-0.1,0.25-0.09,0.39
		c0.01,0.45-0.14,0.9-0.43,1.24l-0.06,0.08c-0.12,0.17-0.35,0.22-0.52,0.1c-0.17-0.12-0.22-0.35-0.1-0.52
		c0.02-0.04,0.05-0.08,0.08-0.12c0.19-0.22,0.29-0.5,0.28-0.79c-0.03-0.39,0.14-0.78,0.45-1.02c0.15-0.38,0.25-0.77,0.3-1.18
		c-0.01-0.03-0.02-0.05-0.04-0.07c-0.18,0.01-0.33-0.14-0.34-0.32c0-0.01,0-0.03,0-0.04V6.74c0-1.11-0.36-1.33-0.51-1.43
		c-0.14-0.07-0.24-0.2-0.27-0.36c0-0.05,0-0.1,0.02-0.15c-0.05-0.3-0.5-1.07-2.25-1.07C10.4,3.81,9.1,5.11,9.02,6.74v2.26
		c0,0.21-0.17,0.38-0.38,0.38c0.02,0,0.01,0.03,0,0.05c0.05,0.4,0.15,0.8,0.3,1.18c0.32,0.24,0.49,0.63,0.45,1.02
		c0.12,0.64,0.47,1.2,0.99,1.59c0.09,0.07,0.14,0.18,0.14,0.29c0,0.48-0.43,2.44-1.74,2.98L5.42,17.6c-0.61,0.2-1.08,0.7-1.23,1.33
		l-0.45,1.8C3.7,20.91,3.55,21.02,3.38,21.02z"/>
	<path class="st0" d="M17.62,19.5c-0.21,0-0.38-0.17-0.38-0.38V18c0-0.21,0.17-0.38,0.38-0.38c0.21,0,0.38,0.17,0.38,0.38v1.13
		C17.99,19.34,17.82,19.5,17.62,19.5z"/>
	<path class="st0" d="M17.62,18.75c-0.42,0-0.75-0.34-0.75-0.75s0.34-0.75,0.75-0.75s0.75,0.34,0.75,0.75S18.03,18.75,17.62,18.75z"
		/>
	<path class="st0" d="M19.87,16.5c-0.21,0-0.38-0.17-0.38-0.38v-0.75c0-1.04-0.84-1.88-1.88-1.88c-1.04,0-1.88,0.84-1.88,1.88v0.75
		c0,0.21-0.17,0.38-0.38,0.38c-0.21,0-0.38-0.17-0.38-0.38v-0.75c0-1.45,1.18-2.63,2.63-2.63s2.63,1.18,2.63,2.63v0.75
		C20.25,16.33,20.08,16.5,19.87,16.5z"/>
	<path class="st0" d="M20.62,21.01h-6.02c-0.21,0-0.38-0.17-0.38-0.38v-4.51c0-0.21,0.17-0.38,0.38-0.38h6.02
		c0.21,0,0.38,0.17,0.38,0.38v4.51C21,20.84,20.83,21.01,20.62,21.01z M14.98,20.26h5.26V16.5h-5.26V20.26z"/>
</g>
</svg>
