<svg xmlns="http://www.w3.org/2000/svg" width="17.194" height="16.59" viewBox="0 0 17.194 16.59"><defs><style>.a{fill:#dee9fe;}.b,.c{stroke:none;}.c{fill:#234d9a;}</style></defs><g class="a" transform="translate(0 6.595) rotate(-30)"><path class="b" d="M 11.46715641021729 11.04154682159424 L 1.723176717758179 11.04154682159424 C 1.46329665184021 11.04154682159424 1.334176659584045 10.86738681793213 1.290726661682129 10.79250717163086 C 1.24726665019989 10.71762657165527 1.160126686096191 10.5191068649292 1.289056658744812 10.29347705841064 L 6.161046504974365 1.767496705055237 C 6.290976524353027 1.540106773376465 6.507926464080811 1.51556670665741 6.595166683197021 1.51556670665741 C 6.682406902313232 1.51556670665741 6.899356842041016 1.540106773376465 7.029286861419678 1.767496705055237 L 11.90127658843994 10.29347705841064 C 12.03020668029785 10.5191068649292 11.94306659698486 10.71762657165527 11.89960670471191 10.79250717163086 C 11.85615634918213 10.86738681793213 11.72703647613525 11.04154682159424 11.46715641021729 11.04154682159424 Z"/><path class="c" d="M 6.595166683197021 2.015566825866699 L 1.723176956176758 10.54154682159424 L 11.46715641021729 10.54154682159424 L 6.595166683197021 2.015566825866699 M 6.595166683197021 1.015562057495117 C 6.933314323425293 1.015562057495117 7.271461486816406 1.183516502380371 7.463406562805176 1.519426345825195 L 12.3353967666626 10.04540634155273 C 12.71634674072266 10.71205711364746 12.23497676849365 11.54154682159424 11.46715641021729 11.54154682159424 L 1.723176956176758 11.54154682159424 C 0.9553565979003906 11.54154682159424 0.4739866256713867 10.71205711364746 0.8549365997314453 10.04540634155273 L 5.726926803588867 1.519426345825195 C 5.918871879577637 1.183516502380371 6.25701904296875 1.015562057495117 6.595166683197021 1.015562057495117 Z"/></g></svg>